# Blender v3.4.1 OBJ File: 'Tiny_Treats_Bubbly_Bathroom_ASSETS_EXPORT.blend'
# www.blender.org
mtllib candle.mtl
o candle
v 0.000000 0.000000 0.000000
v 0.028644 0.043200 -0.144000
v 0.026127 0.012653 -0.131347
v 0.081570 0.043200 -0.122077
v 0.074402 0.012653 -0.111351
v 0.122078 0.043200 -0.081569
v 0.111351 0.012653 -0.074402
v 0.144000 0.043200 -0.028643
v 0.131347 0.012653 -0.026127
v 0.144000 0.043200 0.028643
v 0.131347 0.012653 0.026127
v 0.122078 0.043200 0.081569
v 0.111351 0.012653 0.074402
v 0.081570 0.043200 0.122077
v 0.074402 0.012653 0.111351
v 0.028644 0.043200 0.144000
v 0.026127 0.012653 0.131347
v -0.028643 0.043200 0.144000
v -0.026126 0.012653 0.131347
v -0.081569 0.043200 0.122077
v -0.074402 0.012653 0.111351
v -0.122077 0.043200 0.081569
v -0.111350 0.012653 0.074402
v -0.144000 0.043200 0.028643
v -0.131347 0.012653 0.026127
v -0.144000 0.043200 -0.028643
v -0.131347 0.012653 -0.026127
v -0.122077 0.043200 -0.081569
v -0.111350 0.012653 -0.074402
v -0.081569 0.043200 -0.122077
v -0.074402 0.012653 -0.111351
v -0.028643 0.043200 -0.144000
v -0.026126 0.012653 -0.131347
v 0.057099 0.195200 -0.085454
v 0.020051 0.195200 -0.100800
v 0.085454 0.195200 -0.057099
v 0.100800 0.195200 -0.020050
v 0.100800 0.195200 0.020050
v 0.085454 0.195200 0.057099
v 0.057099 0.195200 0.085454
v 0.020051 0.195200 0.100800
v -0.020050 0.195200 0.100800
v -0.057098 0.195200 0.085454
v -0.085454 0.195200 0.057099
v -0.100800 0.195200 0.020050
v -0.100800 0.195200 -0.020050
v -0.085454 0.195200 -0.057099
v -0.057098 0.195200 -0.085454
v -0.020050 0.195200 -0.100800
v 0.028644 0.250000 -0.144000
v 0.081570 0.250000 -0.122077
v 0.122078 0.250000 -0.081569
v 0.144000 0.250000 -0.028643
v 0.144000 0.250000 0.028643
v 0.122078 0.250000 0.081569
v 0.081570 0.250000 0.122077
v 0.028644 0.250000 0.144000
v -0.028643 0.250000 0.144000
v -0.081569 0.250000 0.122077
v -0.122077 0.250000 0.081569
v -0.144000 0.250000 0.028643
v -0.144000 0.250000 -0.028643
v -0.122077 0.250000 -0.081569
v -0.081569 0.250000 -0.122077
v -0.028643 0.250000 -0.144000
v -0.020050 0.250000 -0.100800
v -0.057098 0.250000 -0.085454
v -0.085454 0.250000 -0.057099
v -0.100800 0.250000 -0.020050
v -0.100800 0.250000 0.020050
v -0.085454 0.250000 0.057099
v -0.057098 0.250000 0.085454
v -0.020050 0.250000 0.100800
v 0.020051 0.250000 0.100800
v 0.057099 0.250000 0.085454
v 0.085454 0.250000 0.057099
v 0.100800 0.250000 0.020050
v 0.100800 0.250000 -0.020050
v 0.085454 0.250000 -0.057099
v 0.057099 0.250000 -0.085454
v 0.020051 0.250000 -0.100800
v 0.057099 0.000000 -0.085454
v 0.020051 0.000000 -0.100800
v 0.085454 0.000000 -0.057099
v 0.100800 0.000000 -0.020050
v 0.100800 0.000000 0.020050
v 0.085454 0.000000 0.057099
v 0.057099 0.000000 0.085454
v 0.020051 0.000000 0.100800
v -0.020050 0.000000 0.100800
v -0.057098 0.000000 0.085454
v -0.085454 0.000000 0.057099
v -0.100800 0.000000 0.020050
v -0.100800 0.000000 -0.020050
v -0.085454 0.000000 -0.057099
v -0.057098 0.000000 -0.085454
v -0.020050 0.000000 -0.100800
v 0.000000 0.195200 -0.000000
v 0.069334 0.264423 -0.103766
v 0.024347 0.264423 -0.122400
v -0.024347 0.264423 -0.122400
v 0.103766 0.264423 -0.069334
v 0.122400 0.264423 -0.024347
v 0.122400 0.264423 0.024347
v 0.103766 0.264423 0.069334
v 0.069334 0.264423 0.103766
v 0.024347 0.264423 0.122400
v -0.024347 0.264423 0.122400
v -0.069334 0.264423 0.103766
v -0.103765 0.264423 0.069334
v -0.122400 0.264423 0.024347
v -0.122400 0.264423 -0.024347
v -0.103765 0.264423 -0.069334
v -0.069334 0.264423 -0.103766
v -0.027015 0.239908 0.026460
v 0.003174 0.361815 0.012827
v -0.027015 0.239908 -0.026460
v 0.003174 0.361815 -0.012827
v 0.025905 0.239908 0.026460
v 0.028828 0.361815 0.012827
v 0.025905 0.239908 -0.026460
v 0.028828 0.361815 -0.012827
v -0.032260 0.237304 -0.000000
v -0.009384 0.347932 0.019628
v 0.002353 0.364515 -0.000000
v -0.036092 0.253329 -0.035537
v -0.000555 0.237304 -0.031705
v 0.017210 0.364515 -0.014857
v 0.034982 0.253329 -0.035537
v 0.031150 0.237304 -0.000000
v 0.032068 0.364515 -0.000000
v 0.034982 0.253329 0.035537
v -0.000555 0.237304 0.031705
v 0.017210 0.364515 0.014857
v -0.036092 0.253329 0.035537
v -0.034418 0.300234 -0.034322
v 0.034227 0.300234 -0.034322
v 0.034227 0.300234 0.034322
v -0.034418 0.300234 0.034322
v -0.009384 0.347932 -0.019628
v 0.029871 0.347932 -0.019628
v 0.029871 0.347932 0.019628
v -0.016475 0.348198 -0.000000
v 0.010363 0.348198 -0.026838
v 0.037201 0.348198 -0.000000
v 0.010363 0.348198 0.026838
v -0.000555 0.231841 -0.000000
v 0.019748 0.370183 -0.000000
v -0.000555 0.253072 0.048780
v 0.048225 0.253072 -0.000000
v -0.000555 0.253072 -0.048780
v -0.049335 0.253072 -0.000000
v -0.000095 0.300234 0.047193
v 0.047098 0.300234 -0.000000
v -0.000095 0.300234 -0.047193
v -0.047288 0.300234 -0.000000
v -0.011766 0.195200 -0.017610
v -0.017610 0.195200 0.011766
v 0.011767 0.195200 0.017610
v 0.017610 0.195200 -0.011766
v 0.012478 0.265200 -0.008338
v 0.008338 0.265200 0.012478
v -0.012478 0.265200 0.008338
v -0.008337 0.265200 -0.012478
vt 0.546137 0.843792
vt 0.546137 0.843792
vt 0.546137 0.809648
vt 0.546137 0.809648
vt 0.543753 0.930656
vt 0.543753 0.930656
vt 0.546137 0.930656
vt 0.546137 0.930656
vt 0.541368 0.859617
vt 0.543788 0.859617
vt 0.544972 0.856248
vt 0.542765 0.856248
vt 0.542765 0.846597
vt 0.544972 0.846597
vt 0.547831 0.845201
vt 0.546137 0.845201
vt 0.548260 0.859617
vt 0.549051 0.856248
vt 0.549051 0.846597
vt 0.550961 0.845201
vt 0.554103 0.859617
vt 0.554380 0.856248
vt 0.554380 0.846597
vt 0.555051 0.845201
vt 0.560426 0.859617
vt 0.560149 0.856248
vt 0.560149 0.846597
vt 0.559478 0.845201
vt 0.566269 0.859617
vt 0.565478 0.856248
vt 0.565478 0.846597
vt 0.563568 0.845201
vt 0.570741 0.859617
vt 0.569556 0.856248
vt 0.569556 0.846597
vt 0.566698 0.845201
vt 0.573161 0.859617
vt 0.571764 0.856248
vt 0.571764 0.846597
vt 0.568392 0.845201
vt 0.573161 0.859617
vt 0.571764 0.856248
vt 0.571764 0.846597
vt 0.568392 0.845201
vt 0.570741 0.859617
vt 0.569556 0.856248
vt 0.569556 0.846597
vt 0.566698 0.845201
vt 0.566269 0.859617
vt 0.565478 0.856248
vt 0.565478 0.846597
vt 0.563568 0.845201
vt 0.560426 0.859617
vt 0.560149 0.856248
vt 0.560149 0.846597
vt 0.559478 0.845201
vt 0.554103 0.859617
vt 0.554380 0.856248
vt 0.554380 0.846597
vt 0.555051 0.845201
vt 0.548260 0.859617
vt 0.549051 0.856248
vt 0.549051 0.846597
vt 0.550961 0.845201
vt 0.543788 0.859617
vt 0.544972 0.856248
vt 0.544972 0.846597
vt 0.547831 0.845201
vt 0.541368 0.859617
vt 0.542765 0.856248
vt 0.542765 0.846597
vt 0.546137 0.845201
vt 0.547831 0.843792
vt 0.547831 0.809648
vt 0.566698 0.843792
vt 0.568392 0.843792
vt 0.568392 0.809648
vt 0.566698 0.809648
vt 0.550961 0.843792
vt 0.550961 0.809648
vt 0.563568 0.843792
vt 0.563568 0.809648
vt 0.555051 0.843792
vt 0.555051 0.809648
vt 0.559478 0.843792
vt 0.559478 0.809648
vt 0.559478 0.843792
vt 0.559478 0.809648
vt 0.555051 0.843792
vt 0.555051 0.809648
vt 0.563568 0.843792
vt 0.563568 0.809648
vt 0.550961 0.843792
vt 0.550961 0.809648
vt 0.566698 0.843792
vt 0.566698 0.809648
vt 0.547831 0.843792
vt 0.547831 0.809648
vt 0.568392 0.843792
vt 0.568392 0.809648
vt 0.573161 0.901701
vt 0.570741 0.901701
vt 0.566269 0.901701
vt 0.570741 0.901701
vt 0.541368 0.901701
vt 0.543788 0.901701
vt 0.548260 0.901701
vt 0.554103 0.901701
vt 0.548260 0.901701
vt 0.543788 0.901701
vt 0.566269 0.901701
vt 0.560426 0.901701
vt 0.573161 0.901701
vt 0.560426 0.901701
vt 0.554103 0.901701
vt 0.541368 0.901701
vt 0.057254 0.184648
vt 0.051922 0.184648
vt 0.048792 0.184648
vt 0.057884 0.184648
vt 0.056012 0.184648
vt 0.058567 0.184648
vt 0.060439 0.184648
vt 0.059197 0.184648
vt 0.064529 0.184648
vt 0.059680 0.184648
vt 0.067659 0.184648
vt 0.059941 0.184648
vt 0.069353 0.184648
vt 0.069353 0.184648
vt 0.067659 0.184648
vt 0.064529 0.184648
vt 0.060439 0.184648
vt 0.056012 0.184648
vt 0.051922 0.184648
vt 0.056771 0.184648
vt 0.048792 0.184648
vt 0.056510 0.184648
vt 0.047098 0.184648
vt 0.047098 0.184648
vt 0.545810 0.930656
vt 0.547831 0.930656
vt 0.549611 0.930656
vt 0.550961 0.930656
vt 0.554577 0.930656
vt 0.555051 0.930656
vt 0.559952 0.930656
vt 0.559478 0.930656
vt 0.564918 0.930656
vt 0.563568 0.930656
vt 0.568719 0.930656
vt 0.566698 0.930656
vt 0.570776 0.930656
vt 0.568392 0.930656
vt 0.570776 0.930656
vt 0.568392 0.930656
vt 0.568719 0.930656
vt 0.566698 0.930656
vt 0.564918 0.930656
vt 0.563568 0.930656
vt 0.559952 0.930656
vt 0.559478 0.930656
vt 0.554577 0.930656
vt 0.555051 0.930656
vt 0.549611 0.930656
vt 0.550961 0.930656
vt 0.545810 0.930656
vt 0.547831 0.930656
vt 0.557265 0.835550
vt 0.546137 0.835550
vt 0.547831 0.835550
vt 0.550961 0.835550
vt 0.555051 0.835550
vt 0.559478 0.835550
vt 0.563568 0.835550
vt 0.566698 0.835550
vt 0.568392 0.835550
vt 0.568392 0.835550
vt 0.566698 0.835550
vt 0.563568 0.835550
vt 0.559478 0.835550
vt 0.555051 0.835550
vt 0.550961 0.835550
vt 0.547831 0.835550
vt 0.546137 0.835550
vt 0.309197 0.778398
vt 0.309680 0.778398
vt 0.309680 0.778398
vt 0.309197 0.778398
vt 0.541368 0.930656
vt 0.543788 0.930656
vt 0.548260 0.930656
vt 0.554103 0.930656
vt 0.560426 0.930656
vt 0.566269 0.930656
vt 0.570741 0.930656
vt 0.573161 0.930656
vt 0.573161 0.930656
vt 0.570741 0.930656
vt 0.566269 0.930656
vt 0.560426 0.930656
vt 0.554103 0.930656
vt 0.548260 0.930656
vt 0.543788 0.930656
vt 0.541368 0.930656
vt 0.157523 0.323260
vt 0.168508 0.301800
vt 0.171749 0.301679
vt 0.163406 0.323260
vt 0.171749 0.301679
vt 0.177489 0.308019
vt 0.177114 0.309252
vt 0.177489 0.308019
vt 0.179096 0.323260
vt 0.180776 0.301800
vt 0.189693 0.301679
vt 0.194785 0.323260
vt 0.183906 0.309252
vt 0.189216 0.308019
vt 0.163406 0.323260
vt 0.200668 0.323260
vt 0.193044 0.301800
vt 0.189693 0.301679
vt 0.194785 0.323260
vt 0.190697 0.309252
vt 0.189216 0.308019
vt 0.179096 0.323260
vt 0.180776 0.301800
vt 0.183906 0.309252
vt 0.168340 0.444385
vt 0.180436 0.443196
vt 0.180436 0.440701
vt 0.165943 0.443196
vt 0.192531 0.444385
vt 0.194928 0.443196
vt 0.192531 0.444385
vt 0.180436 0.443196
vt 0.168340 0.444385
vt 0.185066 0.311840
vt 0.196680 0.450514
vt 0.180436 0.450397
vt 0.164191 0.450514
vt 0.196680 0.450514
vt 0.202733 0.450397
vt 0.164191 0.450514
vt 0.180436 0.450397
vt 0.158138 0.450397
vt 0.306771 0.778398
vt 0.306771 0.778398
vt 0.307254 0.778398
vt 0.307254 0.778398
vn -0.1951 0.0000 0.9808
vn 0.1951 0.0000 0.9808
vn -0.1069 0.8366 0.5373
vn 0.1069 0.8366 0.5373
vn 0.1914 -0.1938 -0.9622
vn 0.5450 -0.1938 -0.8157
vn 0.4027 -0.6889 -0.6027
vn 0.1414 -0.6889 -0.7110
vn 0.1192 -0.9767 -0.1784
vn 0.0419 -0.9767 -0.2105
vn 0.8157 -0.1938 -0.5450
vn 0.6027 -0.6889 -0.4027
vn 0.1784 -0.9767 -0.1192
vn 0.9622 -0.1938 -0.1914
vn 0.7110 -0.6889 -0.1414
vn 0.2105 -0.9767 -0.0419
vn 0.9622 -0.1938 0.1914
vn 0.7110 -0.6889 0.1414
vn 0.2105 -0.9767 0.0419
vn 0.8157 -0.1938 0.5450
vn 0.6027 -0.6889 0.4027
vn 0.1784 -0.9767 0.1192
vn 0.5450 -0.1938 0.8157
vn 0.4027 -0.6889 0.6027
vn 0.1192 -0.9767 0.1784
vn 0.1914 -0.1938 0.9622
vn 0.1414 -0.6889 0.7110
vn 0.0419 -0.9767 0.2105
vn -0.1914 -0.1938 0.9622
vn -0.1414 -0.6889 0.7110
vn -0.0419 -0.9767 0.2105
vn -0.5450 -0.1938 0.8157
vn -0.4027 -0.6889 0.6027
vn -0.1192 -0.9767 0.1784
vn -0.8157 -0.1938 0.5450
vn -0.6027 -0.6889 0.4027
vn -0.1784 -0.9767 0.1192
vn -0.9622 -0.1938 0.1914
vn -0.7110 -0.6889 0.1414
vn -0.2105 -0.9767 0.0419
vn -0.9622 -0.1938 -0.1914
vn -0.7110 -0.6889 -0.1414
vn -0.2105 -0.9767 -0.0419
vn -0.8157 -0.1938 -0.5450
vn -0.6027 -0.6889 -0.4027
vn -0.1784 -0.9767 -0.1192
vn -0.5450 -0.1938 -0.8157
vn -0.4027 -0.6889 -0.6027
vn -0.1192 -0.9767 -0.1784
vn -0.1914 -0.1938 -0.9622
vn -0.1414 -0.6889 -0.7110
vn -0.0419 -0.9767 -0.2105
vn -0.5556 0.0000 0.8315
vn 0.5556 0.0000 -0.8315
vn 0.1951 0.0000 -0.9808
vn -0.8315 0.0000 0.5556
vn 0.8315 0.0000 -0.5556
vn -0.9808 0.0000 0.1951
vn 0.9808 0.0000 -0.1951
vn -0.9808 0.0000 -0.1951
vn 0.9808 0.0000 0.1951
vn -0.8315 0.0000 -0.5556
vn 0.8315 0.0000 0.5556
vn -0.5556 0.0000 -0.8315
vn 0.5556 0.0000 0.8315
vn -0.1951 0.0000 -0.9808
vn 0.0000 1.0000 -0.0000
vn 0.3044 0.8366 0.4555
vn 0.4555 0.8366 0.3044
vn 0.5373 0.8366 0.1069
vn 0.5373 0.8366 -0.1069
vn 0.4555 0.8366 -0.3044
vn 0.3044 0.8366 -0.4555
vn 0.1069 0.8366 -0.5373
vn -0.1069 0.8366 -0.5373
vn -0.3044 0.8366 -0.4555
vn -0.4555 0.8366 -0.3044
vn -0.5373 0.8366 -0.1069
vn -0.5373 0.8366 0.1069
vn -0.4555 0.8366 0.3044
vn -0.3044 0.8366 0.4555
vn 0.0000 -1.0000 0.0000
vn -0.1947 0.0622 0.9789
vn -0.9580 0.2869 -0.0000
vn -0.7726 0.6349 -0.0000
vn -0.5595 0.6004 -0.5714
vn -0.6888 0.2692 -0.6731
vn -0.5595 0.6004 0.5714
vn -0.4120 0.7875 0.4583
vn -0.4776 0.8786 0.0000
vn -0.4120 0.7875 -0.4583
vn -0.0162 0.2110 -0.9773
vn 0.0051 0.4775 -0.8786
vn 0.6635 0.3349 -0.6691
vn 0.6882 0.1490 -0.7100
vn 0.0436 0.7947 -0.6054
vn 0.6032 0.5877 -0.5392
vn -0.6888 0.2692 0.6731
vn 0.9937 0.1118 -0.0000
vn 0.9717 0.2363 -0.0000
vn 0.6635 0.3349 0.6691
vn 0.6882 0.1490 0.7100
vn 0.9620 0.2729 0.0000
vn 0.6032 0.5877 0.5392
vn -0.0162 0.2110 0.9773
vn 0.0051 0.4775 0.8786
vn 0.0436 0.7947 0.6054
vn -0.3861 -0.8377 -0.3861
vn 0.0000 -0.8815 -0.4723
vn -0.4723 -0.8815 0.0000
vn 0.3861 -0.8377 -0.3861
vn 0.4723 -0.8815 -0.0000
vn 0.3861 -0.8377 0.3861
vn -0.0000 -0.8815 0.4723
vn -0.3861 -0.8377 0.3861
vn 0.0696 0.9976 0.0000
vn 0.3568 0.9342 0.0000
vn 0.6622 -0.3476 0.6638
vn -0.0012 -0.3412 0.9400
vn -0.6654 -0.3413 0.6639
vn 0.6622 -0.3476 -0.6638
vn 0.9383 -0.3457 -0.0000
vn -0.6654 -0.3413 -0.6639
vn -0.0012 -0.3412 -0.9400
vn -0.9416 -0.3367 0.0000
vn -0.9789 0.0622 -0.1947
vn 0.9789 0.0622 0.1947
vn 0.1947 0.0622 -0.9789
usemtl tiny_treats_1
s 1
f 81/1/1 66/2/2 49/3/2 35/4/1
f 100/5/3 101/6/4 66/7/4 81/8/3
f 2/9/5 4/10/6 5/11/7 3/12/8
f 3/13/8 5/14/7 82/15/9 83/16/10
f 4/10/6 6/17/11 7/18/12 5/11/7
f 5/14/7 7/19/12 84/20/13 82/15/9
f 6/17/11 8/21/14 9/22/15 7/18/12
f 7/19/12 9/23/15 85/24/16 84/20/13
f 8/21/14 10/25/17 11/26/18 9/22/15
f 9/23/15 11/27/18 86/28/19 85/24/16
f 10/25/17 12/29/20 13/30/21 11/26/18
f 11/27/18 13/31/21 87/32/22 86/28/19
f 12/29/20 14/33/23 15/34/24 13/30/21
f 13/31/21 15/35/24 88/36/25 87/32/22
f 14/33/23 16/37/26 17/38/27 15/34/24
f 15/35/24 17/39/27 89/40/28 88/36/25
f 16/37/26 18/41/29 19/42/30 17/38/27
f 17/39/27 19/43/30 90/44/31 89/40/28
f 18/41/29 20/45/32 21/46/33 19/42/30
f 19/43/30 21/47/33 91/48/34 90/44/31
f 20/45/32 22/49/35 23/50/36 21/46/33
f 21/47/33 23/51/36 92/52/37 91/48/34
f 22/49/35 24/53/38 25/54/39 23/50/36
f 23/51/36 25/55/39 93/56/40 92/52/37
f 24/53/38 26/57/41 27/58/42 25/54/39
f 25/55/39 27/59/42 94/60/43 93/56/40
f 26/57/41 28/61/44 29/62/45 27/58/42
f 27/59/42 29/63/45 95/64/46 94/60/43
f 28/61/44 30/65/47 31/66/48 29/62/45
f 29/63/45 31/67/48 96/68/49 95/64/46
f 30/65/47 32/69/50 33/70/51 31/66/48
f 31/67/48 33/71/51 97/72/52 96/68/49
f 32/69/50 2/9/5 3/12/8 33/70/51
f 33/71/51 3/13/8 83/16/10 97/72/52
f 80/73/53 81/1/1 35/4/1 34/74/53
f 72/75/54 73/76/55 42/77/55 43/78/54
f 79/79/56 80/73/53 34/74/53 36/80/56
f 71/81/57 72/75/54 43/78/54 44/82/57
f 78/83/58 79/79/56 36/80/56 37/84/58
f 70/85/59 71/81/57 44/82/57 45/86/59
f 77/87/60 78/83/58 37/84/58 38/88/60
f 69/89/61 70/85/59 45/86/59 46/90/61
f 76/91/62 77/87/60 38/88/60 39/92/62
f 68/93/63 69/89/61 46/90/61 47/94/63
f 75/95/64 76/91/62 39/92/62 40/96/64
f 67/97/65 68/93/63 47/94/63 48/98/65
f 74/99/66 75/95/64 40/96/64 41/100/66
f 66/2/2 67/97/65 48/98/65 49/3/2
f 73/76/55 74/99/66 41/100/66 42/77/55
f 18/41/29 58/101/1 59/102/53 20/45/32
f 12/29/20 55/103/63 56/104/65 14/33/23
f 2/9/5 50/105/55 51/106/54 4/10/6
f 6/17/11 52/107/57 53/108/59 8/21/14
f 28/61/44 63/109/62 64/110/64 30/65/47
f 22/49/35 60/111/56 61/112/58 24/53/38
f 16/37/26 57/113/2 58/101/1 18/41/29
f 10/25/17 54/114/61 55/103/63 12/29/20
f 4/10/6 51/106/54 52/107/57 6/17/11
f 26/57/41 62/115/60 63/109/62 28/61/44
f 20/45/32 59/102/53 60/111/56 22/49/35
f 14/33/23 56/104/65 57/113/2 16/37/26
f 8/21/14 53/108/59 54/114/61 10/25/17
f 30/65/47 64/110/64 65/116/66 32/69/50
f 24/53/38 61/112/58 62/115/60 26/57/41
f 98/117/67 36/118/67 34/119/67
f 98/120/67 37/121/67 36/118/67
f 98/122/67 38/123/67 37/121/67
f 98/124/67 39/125/67 38/123/67
f 98/126/67 40/127/67 39/125/67
f 98/128/67 41/129/67 40/127/67
f 98/128/67 42/130/67 41/129/67
f 98/126/67 43/131/67 42/130/67
f 98/124/67 44/132/67 43/131/67
f 98/122/67 45/133/67 44/132/67
f 98/120/67 46/134/67 45/133/67
f 98/117/67 47/135/67 46/134/67
f 98/136/67 48/137/67 47/135/67
f 98/138/67 49/139/67 48/137/67
f 98/136/67 34/119/67 35/140/67
f 101/6/4 114/141/68 67/142/68 66/7/4
f 114/141/68 113/143/69 68/144/69 67/142/68
f 113/143/69 112/145/70 69/146/70 68/144/69
f 112/145/70 111/147/71 70/148/71 69/146/70
f 111/147/71 110/149/72 71/150/72 70/148/71
f 110/149/72 109/151/73 72/152/73 71/150/72
f 109/151/73 108/153/74 73/154/74 72/152/73
f 108/153/74 107/155/75 74/156/75 73/154/74
f 107/155/75 106/157/76 75/158/76 74/156/75
f 106/157/76 105/159/77 76/160/77 75/158/76
f 105/159/77 104/161/78 77/162/78 76/160/77
f 104/161/78 103/163/79 78/164/79 77/162/78
f 103/163/79 102/165/80 79/166/80 78/164/79
f 102/165/80 99/167/81 80/168/81 79/166/80
f 100/5/3 81/8/3 80/168/81 99/167/81
f 1/169/82 83/170/10 82/171/9
f 1/169/82 82/171/9 84/172/13
f 1/169/82 84/172/13 85/173/16
f 1/169/82 85/173/16 86/174/19
f 1/169/82 86/174/19 87/175/22
f 1/169/82 87/175/22 88/176/25
f 1/169/82 88/176/25 89/177/28
f 1/169/82 89/177/28 90/178/31
f 1/169/82 90/178/31 91/179/34
f 1/169/82 91/179/34 92/180/37
f 1/169/82 92/180/37 93/181/40
f 1/169/82 93/181/40 94/182/43
f 1/169/82 94/182/43 95/183/46
f 1/169/82 95/183/46 96/184/49
f 1/169/82 96/184/49 97/185/52
f 1/169/82 97/185/52 83/170/10
f 98/138/67 35/140/67 49/139/67
f 158/186/83 159/187/83 162/188/83 163/189/83
f 50/190/74 100/5/74 99/167/73 51/191/73
f 52/192/72 51/191/73 99/167/73 102/165/72
f 53/193/71 52/192/72 102/165/72 103/163/71
f 54/194/70 53/193/71 103/163/71 104/161/70
f 55/195/69 54/194/70 104/161/70 105/159/69
f 56/196/68 55/195/69 105/159/69 106/157/68
f 57/197/4 56/196/68 106/157/68 107/155/4
f 58/198/3 57/197/4 107/155/4 108/153/3
f 59/199/81 58/198/3 108/153/3 109/151/81
f 60/200/80 59/199/81 109/151/81 110/149/80
f 61/201/79 60/200/80 110/149/80 111/147/79
f 62/202/78 61/201/79 111/147/79 112/145/78
f 63/203/77 62/202/78 112/145/78 113/143/77
f 64/204/76 63/203/77 113/143/77 114/141/76
f 65/205/75 64/204/76 114/141/76 101/6/75
f 50/190/74 65/205/75 101/6/75 100/5/74
f 32/69/50 65/116/66 50/105/55 2/9/5
f 156/206/84 143/207/85 140/208/86 136/209/87
f 124/210/88 116/211/89 125/212/90 143/207/85
f 143/207/85 125/212/90 118/213/91 140/208/86
f 155/214/92 144/215/93 141/216/94 137/217/95
f 140/208/86 118/213/91 128/218/96 144/215/93
f 144/215/93 128/218/96 122/219/97 141/216/94
f 139/220/98 124/210/88 143/207/85 156/206/84
f 154/221/99 145/222/100 142/223/101 138/224/102
f 141/216/94 122/219/97 131/225/103 145/222/100
f 145/222/100 131/225/103 120/226/104 142/223/101
f 136/209/87 140/208/86 144/215/93 155/214/92
f 153/227/105 146/228/106 124/210/88 139/220/98
f 142/223/101 120/226/104 134/229/107 146/228/106
f 146/228/106 134/229/107 116/211/89 124/210/88
f 137/217/95 141/216/94 145/222/100 154/221/99
f 117/230/108 127/231/109 147/232/82 123/233/110
f 127/231/109 121/234/111 130/235/112 147/232/82
f 147/232/82 130/235/112 119/236/113 133/237/114
f 123/233/110 147/232/82 133/237/114 115/238/115
f 122/219/97 128/218/96 148/239/116 131/225/117
f 128/218/96 118/213/91 125/212/90 148/239/116
f 148/239/116 125/212/90 116/211/89 134/229/107
f 131/225/117 148/239/116 134/229/107 120/226/104
f 119/236/113 132/240/118 149/241/119 133/237/114
f 149/241/119 153/227/105 139/220/98 135/242/120
f 129/243/121 137/217/95 154/221/99 150/244/122
f 133/237/114 149/241/119 135/242/120 115/238/115
f 121/234/111 129/243/121 150/244/122 130/235/112
f 150/244/122 154/221/99 138/224/102 132/240/118
f 126/245/123 136/209/87 155/214/92 151/246/124
f 130/235/112 150/244/122 132/240/118 119/236/113
f 117/230/108 126/245/123 151/246/124 127/231/109
f 151/246/124 155/214/92 137/217/95 129/243/121
f 135/242/120 139/220/98 156/206/84 152/247/125
f 127/231/109 151/246/124 129/243/121 121/234/111
f 115/238/115 135/242/120 152/247/125 123/233/110
f 152/247/125 156/206/84 136/209/87 126/245/123
f 138/224/102 142/223/101 146/228/106 153/227/105
f 123/233/110 152/247/125 126/245/123 117/230/108
f 132/240/118 138/224/102 153/227/105 149/241/119
f 157/248/126 158/186/126 163/189/126 164/249/126
f 159/187/127 160/250/127 161/251/127 162/188/127
f 160/250/128 157/248/128 164/249/128 161/251/128
