# Blender v3.4.1 OBJ File: 'Tiny_Treats_Bubbly_Bathroom_ASSETS_EXPORT.blend'
# www.blender.org
mtllib container_bathroom_C_blue.mtl
o container_bathroom_C_blue
v -0.000000 0.000000 0.000000
v 0.031030 0.047193 -0.156297
v 0.028304 0.013823 -0.142563
v -0.000000 0.311928 -0.000000
v 0.026239 0.264735 -0.132165
v 0.023934 0.298105 -0.120552
v 0.088367 0.047193 -0.132502
v 0.080602 0.013823 -0.120859
v 0.074723 0.264735 -0.112044
v 0.068157 0.298105 -0.102199
v 0.132250 0.047193 -0.088535
v 0.120630 0.013823 -0.080756
v 0.111831 0.264735 -0.074865
v 0.102005 0.298105 -0.068287
v 0.156000 0.047193 -0.031089
v 0.142292 0.013823 -0.028358
v 0.131914 0.264735 -0.026289
v 0.120323 0.298105 -0.023979
v 0.156000 0.047193 0.031089
v 0.142292 0.013823 0.028358
v 0.131914 0.264735 0.026289
v 0.120323 0.298105 0.023979
v 0.132250 0.047193 0.088535
v 0.120630 0.013823 0.080756
v 0.111831 0.264735 0.074865
v 0.102005 0.298105 0.068287
v 0.088367 0.047193 0.132502
v 0.080602 0.013823 0.120859
v 0.074723 0.264735 0.112044
v 0.068157 0.298105 0.102199
v 0.031030 0.047193 0.156297
v 0.028304 0.013823 0.142563
v 0.026239 0.264735 0.132165
v 0.023934 0.298105 0.120552
v -0.031030 0.047193 0.156297
v -0.028304 0.013823 0.142563
v -0.026239 0.264735 0.132165
v -0.023934 0.298105 0.120552
v -0.088367 0.047193 0.132502
v -0.080602 0.013823 0.120859
v -0.074723 0.264735 0.112044
v -0.068158 0.298105 0.102199
v -0.132251 0.047193 0.088535
v -0.120630 0.013823 0.080756
v -0.111831 0.264735 0.074865
v -0.102005 0.298105 0.068287
v -0.156000 0.047193 0.031089
v -0.142293 0.013823 0.028358
v -0.131914 0.264735 0.026289
v -0.120323 0.298105 0.023979
v -0.156000 0.047193 -0.031089
v -0.142293 0.013823 -0.028358
v -0.131914 0.264735 -0.026289
v -0.120323 0.298105 -0.023979
v -0.132251 0.047193 -0.088535
v -0.120630 0.013823 -0.080756
v -0.111831 0.264735 -0.074865
v -0.102005 0.298105 -0.068287
v -0.088367 0.047193 -0.132502
v -0.080602 0.013823 -0.120859
v -0.074723 0.264735 -0.112044
v -0.068158 0.298105 -0.102199
v -0.031030 0.047193 -0.156297
v -0.028304 0.013823 -0.142563
v -0.026239 0.264735 -0.132165
v -0.023934 0.298105 -0.120552
v 0.018367 0.311928 -0.092515
v 0.052306 0.311928 -0.078431
v 0.078282 0.311928 -0.052406
v 0.092340 0.311928 -0.018402
v 0.092340 0.311928 0.018402
v 0.078282 0.311928 0.052406
v 0.052306 0.311928 0.078431
v 0.018367 0.311928 0.092515
v -0.018368 0.311928 0.092515
v -0.052306 0.311928 0.078431
v -0.078282 0.311928 0.052406
v -0.092340 0.311928 0.018402
v -0.092340 0.311928 -0.018402
v -0.078282 0.311928 -0.052406
v -0.052306 0.311928 -0.078431
v -0.018368 0.311928 -0.092515
v 0.061857 0.000000 -0.092751
v 0.021721 0.000000 -0.109408
v 0.092575 0.000000 -0.061975
v 0.109200 0.000000 -0.021763
v 0.109200 0.000000 0.021763
v 0.092575 0.000000 0.061974
v 0.061857 0.000000 0.092751
v 0.021721 0.000000 0.109408
v -0.021721 0.000000 0.109408
v -0.061857 0.000000 0.092751
v -0.092575 0.000000 0.061974
v -0.109200 0.000000 0.021763
v -0.109200 0.000000 -0.021763
v -0.092575 0.000000 -0.061975
v -0.061857 0.000000 -0.092751
v -0.021721 0.000000 -0.109408
v -0.111831 0.232483 -0.074865
v -0.098391 0.214595 -0.065901
v -0.131914 0.232483 -0.026289
v -0.116068 0.214595 -0.023143
v -0.131914 0.232483 0.026289
v -0.116068 0.214595 0.023143
v -0.111831 0.232483 0.074865
v -0.098391 0.214595 0.065901
v -0.074723 0.232483 0.112044
v -0.065737 0.214595 0.098618
v -0.026239 0.232483 0.132165
v -0.023082 0.214595 0.116321
v 0.026239 0.232483 0.132165
v 0.023082 0.214595 0.116321
v 0.074723 0.232483 0.112044
v 0.065737 0.214595 0.098618
v 0.111831 0.232483 0.074865
v 0.098391 0.214595 0.065901
v 0.131914 0.232483 0.026289
v 0.116068 0.214595 0.023143
v 0.131914 0.232483 -0.026289
v 0.116068 0.214595 -0.023143
v 0.111831 0.232483 -0.074865
v 0.098391 0.214595 -0.065901
v -0.026239 0.232483 -0.132165
v -0.023082 0.214595 -0.116321
v 0.074723 0.232483 -0.112044
v 0.065737 0.214595 -0.098618
v 0.026239 0.232483 -0.132165
v 0.023082 0.214595 -0.116321
v -0.074723 0.232483 -0.112044
v -0.065737 0.214595 -0.098618
v -0.121445 0.202416 -0.081312
v -0.132251 0.182738 -0.088535
v -0.143256 0.202416 -0.028553
v -0.156000 0.182738 -0.031089
v -0.143256 0.202416 0.028553
v -0.156000 0.182738 0.031089
v -0.121445 0.202416 0.081312
v -0.132251 0.182738 0.088535
v -0.081145 0.202416 0.121689
v -0.088367 0.182738 0.132502
v -0.028494 0.202416 0.143540
v -0.031030 0.182738 0.156297
v 0.028494 0.202416 0.143540
v 0.031030 0.182738 0.156297
v 0.081145 0.202416 0.121689
v 0.088367 0.182738 0.132502
v 0.121445 0.202416 0.081312
v 0.132250 0.182738 0.088535
v 0.143256 0.202416 0.028553
v 0.156000 0.182738 0.031089
v 0.143256 0.202416 -0.028553
v 0.156000 0.182738 -0.031089
v 0.132250 0.182738 -0.088535
v 0.121445 0.202416 -0.081312
v -0.028494 0.202416 -0.143540
v -0.031030 0.182738 -0.156297
v 0.088367 0.182738 -0.132502
v 0.081145 0.202416 -0.121689
v 0.031030 0.182738 -0.156297
v 0.028494 0.202416 -0.143540
v -0.081145 0.202416 -0.121689
v -0.088367 0.182738 -0.132502
vt 0.415659 0.615459
vt 0.415659 0.637802
vt 0.411737 0.637802
vt 0.411737 0.615459
vt 0.418326 0.674303
vt 0.418326 0.674303
vt 0.413840 0.672295
vt 0.413840 0.672295
vt 0.421244 0.674303
vt 0.426637 0.674303
vt 0.424097 0.672296
vt 0.417442 0.672295
vt 0.433685 0.674303
vt 0.432793 0.672296
vt 0.441315 0.674303
vt 0.442207 0.672296
vt 0.448363 0.674303
vt 0.450903 0.672296
vt 0.453756 0.674303
vt 0.457559 0.672295
vt 0.456674 0.674303
vt 0.461160 0.672295
vt 0.456674 0.674303
vt 0.461160 0.672295
vt 0.453756 0.674303
vt 0.457559 0.672295
vt 0.448363 0.674303
vt 0.450903 0.672296
vt 0.432375 0.615459
vt 0.432375 0.637802
vt 0.422907 0.637802
vt 0.422907 0.615459
vt 0.441315 0.674303
vt 0.442207 0.672296
vt 0.411737 0.599834
vt 0.415659 0.599834
vt 0.417578 0.594334
vt 0.414001 0.594334
vt 0.422211 0.592055
vt 0.419466 0.592055
vt 0.294031 0.918905
vt 0.290715 0.918905
vt 0.292629 0.924406
vt 0.295654 0.924406
vt 0.295654 0.971281
vt 0.292629 0.971281
vt 0.297250 0.973559
vt 0.299572 0.973559
vt 0.422907 0.599834
vt 0.424189 0.594334
vt 0.427285 0.592055
vt 0.300160 0.918905
vt 0.301244 0.924406
vt 0.301244 0.971281
vt 0.303862 0.973559
vt 0.432375 0.599834
vt 0.432826 0.594334
vt 0.433913 0.592055
vt 0.308167 0.918905
vt 0.308548 0.924406
vt 0.308548 0.971281
vt 0.309467 0.973559
vt 0.442625 0.599834
vt 0.442174 0.594334
vt 0.441087 0.592055
vt 0.316833 0.918905
vt 0.316453 0.924406
vt 0.316453 0.971281
vt 0.315533 0.973559
vt 0.452094 0.599834
vt 0.450811 0.594334
vt 0.447716 0.592055
vt 0.324840 0.918905
vt 0.323756 0.924406
vt 0.323756 0.971281
vt 0.321138 0.973559
vt 0.459341 0.599834
vt 0.457422 0.594334
vt 0.452789 0.592055
vt 0.330969 0.918905
vt 0.329346 0.924406
vt 0.329346 0.971281
vt 0.325428 0.973559
vt 0.463263 0.599834
vt 0.460999 0.594334
vt 0.455534 0.592055
vt 0.334285 0.918905
vt 0.332371 0.924406
vt 0.332371 0.971281
vt 0.327750 0.973559
vt 0.463263 0.599834
vt 0.460999 0.594334
vt 0.455534 0.592055
vt 0.334285 0.918905
vt 0.332371 0.924406
vt 0.332371 0.971281
vt 0.327750 0.973559
vt 0.459341 0.599834
vt 0.457422 0.594334
vt 0.452789 0.592055
vt 0.330969 0.918905
vt 0.329346 0.924406
vt 0.329346 0.971281
vt 0.325428 0.973559
vt 0.452094 0.599834
vt 0.450811 0.594334
vt 0.447716 0.592055
vt 0.324840 0.918905
vt 0.323756 0.924406
vt 0.323756 0.971281
vt 0.321138 0.973559
vt 0.442625 0.599834
vt 0.442174 0.594334
vt 0.441087 0.592055
vt 0.316833 0.918905
vt 0.316453 0.924406
vt 0.316453 0.971281
vt 0.315533 0.973559
vt 0.432375 0.599834
vt 0.432826 0.594334
vt 0.433913 0.592055
vt 0.308167 0.918905
vt 0.308548 0.924406
vt 0.308548 0.971281
vt 0.309467 0.973559
vt 0.422907 0.599834
vt 0.424189 0.594334
vt 0.427285 0.592055
vt 0.300160 0.918905
vt 0.301244 0.924406
vt 0.301244 0.971281
vt 0.303862 0.973559
vt 0.415659 0.599834
vt 0.417578 0.594334
vt 0.422211 0.592055
vt 0.294031 0.918905
vt 0.295654 0.924406
vt 0.295654 0.971281
vt 0.299572 0.973559
vt 0.411737 0.599834
vt 0.414001 0.594334
vt 0.419466 0.592055
vt 0.290715 0.918905
vt 0.292629 0.924406
vt 0.292629 0.971281
vt 0.297250 0.973559
vt 0.312500 0.957934
vt 0.299572 0.957934
vt 0.297250 0.957934
vt 0.303862 0.957934
vt 0.309467 0.957934
vt 0.315533 0.957934
vt 0.321138 0.957934
vt 0.325428 0.957934
vt 0.327750 0.957934
vt 0.327750 0.957934
vt 0.325428 0.957934
vt 0.321138 0.957934
vt 0.315533 0.957934
vt 0.309467 0.957934
vt 0.303862 0.957934
vt 0.299572 0.957934
vt 0.297250 0.957934
vt 0.437500 0.576430
vt 0.419466 0.576430
vt 0.422211 0.576430
vt 0.427285 0.576430
vt 0.433913 0.576430
vt 0.441087 0.576430
vt 0.447716 0.576430
vt 0.452789 0.576430
vt 0.455534 0.576430
vt 0.455534 0.576430
vt 0.452789 0.576430
vt 0.447716 0.576430
vt 0.441087 0.576430
vt 0.433913 0.576430
vt 0.427285 0.576430
vt 0.422211 0.576430
vt 0.419466 0.576430
vt 0.294031 0.913589
vt 0.290715 0.913589
vt 0.300160 0.913589
vt 0.308167 0.913589
vt 0.316833 0.913589
vt 0.324840 0.913589
vt 0.330969 0.913589
vt 0.334285 0.913589
vt 0.334285 0.913589
vt 0.330969 0.913589
vt 0.324840 0.913589
vt 0.316833 0.913589
vt 0.308167 0.913589
vt 0.300160 0.913589
vt 0.290715 0.913589
vt 0.294031 0.913589
vt 0.300160 0.897964
vt 0.308167 0.897964
vt 0.308685 0.895016
vt 0.301637 0.895016
vt 0.422907 0.615459
vt 0.422907 0.637802
vt 0.432375 0.637802
vt 0.432375 0.615459
vt 0.316833 0.897964
vt 0.316315 0.895016
vt 0.442625 0.637802
vt 0.442625 0.615459
vt 0.324840 0.897964
vt 0.323363 0.895016
vt 0.452094 0.637802
vt 0.452094 0.615459
vt 0.330969 0.897964
vt 0.328756 0.895016
vt 0.459341 0.637802
vt 0.459341 0.615459
vt 0.334285 0.897964
vt 0.331674 0.895016
vt 0.463263 0.637802
vt 0.463263 0.615459
vt 0.334285 0.897964
vt 0.331674 0.895016
vt 0.463263 0.637802
vt 0.463263 0.615459
vt 0.330969 0.897964
vt 0.328756 0.895016
vt 0.459341 0.637802
vt 0.459341 0.615459
vt 0.324840 0.897964
vt 0.323363 0.895016
vt 0.452094 0.637802
vt 0.452094 0.615459
vt 0.316833 0.897964
vt 0.316315 0.895016
vt 0.442625 0.637802
vt 0.442625 0.615459
vt 0.308167 0.897964
vt 0.308685 0.895016
vt 0.300160 0.897964
vt 0.301637 0.895016
vt 0.294031 0.897964
vt 0.296244 0.895016
vt 0.433685 0.674303
vt 0.426637 0.674303
vt 0.424097 0.672296
vt 0.432793 0.672296
vt 0.290715 0.897964
vt 0.293326 0.895016
vt 0.411737 0.637802
vt 0.411737 0.615459
vt 0.294031 0.897964
vt 0.296244 0.895016
vt 0.415659 0.615459
vt 0.415659 0.637802
vt 0.290715 0.897964
vt 0.293326 0.895016
vt 0.421244 0.674303
vt 0.417442 0.672295
vt 0.432375 0.684677
vt 0.422907 0.684677
vt 0.424097 0.687921
vt 0.432793 0.687921
vt 0.442625 0.684677
vt 0.442207 0.687921
vt 0.452094 0.684677
vt 0.450903 0.687921
vt 0.459341 0.684677
vt 0.457559 0.687920
vt 0.463263 0.684677
vt 0.461160 0.687920
vt 0.463263 0.684677
vt 0.461160 0.687920
vt 0.459341 0.684677
vt 0.457559 0.687920
vt 0.452094 0.684677
vt 0.450903 0.687921
vt 0.442625 0.684677
vt 0.442207 0.687921
vt 0.432375 0.684677
vt 0.432793 0.687921
vt 0.422907 0.684677
vt 0.424097 0.687921
vt 0.415659 0.684677
vt 0.417442 0.687920
vt 0.411737 0.684677
vt 0.413840 0.687920
vt 0.415659 0.684677
vt 0.417442 0.687920
vt 0.411737 0.684677
vt 0.413840 0.687920
vn -0.5458 -0.1927 -0.8155
vn -0.5342 0.2784 -0.7982
vn -0.1877 0.2785 -0.9419
vn -0.1917 -0.1927 -0.9623
vn -0.0786 0.9157 -0.3941
vn 0.0786 0.9157 -0.3941
vn 0.1298 0.7477 -0.6513
vn -0.1298 0.7477 -0.6513
vn 0.2236 0.9157 -0.3340
vn 0.3346 0.9156 -0.2231
vn 0.5526 0.7475 -0.3686
vn 0.3694 0.7476 -0.5519
vn 0.3945 0.9155 -0.0783
vn 0.6516 0.7474 -0.1294
vn 0.3945 0.9155 0.0783
vn 0.6516 0.7474 0.1294
vn 0.3346 0.9156 0.2231
vn 0.5526 0.7475 0.3686
vn 0.2236 0.9157 0.3340
vn 0.3694 0.7476 0.5519
vn 0.0786 0.9157 0.3941
vn 0.1298 0.7477 0.6513
vn -0.0786 0.9157 0.3941
vn -0.1298 0.7477 0.6513
vn -0.2236 0.9157 0.3340
vn -0.3694 0.7476 0.5519
vn -0.3346 0.9156 0.2231
vn -0.5526 0.7475 0.3686
vn -0.9625 -0.1925 -0.1911
vn -0.9421 0.2783 -0.1871
vn -0.7990 0.2783 -0.5330
vn -0.8163 -0.1925 -0.5445
vn -0.3945 0.9155 0.0783
vn -0.6516 0.7474 0.1294
vn 0.1917 -0.1927 -0.9623
vn 0.5458 -0.1927 -0.8155
vn 0.4042 -0.6871 -0.6038
vn 0.1420 -0.6872 -0.7124
vn 0.1202 -0.9764 -0.1794
vn 0.0422 -0.9764 -0.2117
vn 0.5485 0.1661 -0.8195
vn 0.1927 0.1662 -0.9671
vn 0.1494 0.6447 -0.7497
vn 0.4253 0.6446 -0.6353
vn 0.0488 0.9684 -0.2447
vn 0.1389 0.9683 -0.2074
vn 0.8163 -0.1925 -0.5445
vn 0.6046 -0.6870 -0.4032
vn 0.1798 -0.9764 -0.1199
vn 0.8204 0.1660 -0.5472
vn 0.6362 0.6444 -0.4243
vn 0.2078 0.9683 -0.1385
vn 0.9625 -0.1925 -0.1911
vn 0.7129 -0.6869 -0.1415
vn 0.2120 -0.9764 -0.0421
vn 0.9672 0.1660 -0.1921
vn 0.7501 0.6443 -0.1489
vn 0.2450 0.9683 -0.0486
vn 0.9625 -0.1925 0.1911
vn 0.7129 -0.6869 0.1415
vn 0.2120 -0.9764 0.0421
vn 0.9672 0.1660 0.1921
vn 0.7501 0.6443 0.1489
vn 0.2450 0.9683 0.0486
vn 0.8163 -0.1925 0.5445
vn 0.6046 -0.6870 0.4032
vn 0.1798 -0.9764 0.1199
vn 0.8204 0.1660 0.5472
vn 0.6362 0.6444 0.4243
vn 0.2078 0.9683 0.1385
vn 0.5458 -0.1927 0.8155
vn 0.4042 -0.6871 0.6038
vn 0.1202 -0.9764 0.1794
vn 0.5485 0.1661 0.8195
vn 0.4253 0.6446 0.6353
vn 0.1389 0.9683 0.2074
vn 0.1917 -0.1927 0.9623
vn 0.1420 -0.6872 0.7124
vn 0.0422 -0.9764 0.2117
vn 0.1927 0.1662 0.9671
vn 0.1494 0.6447 0.7497
vn 0.0488 0.9684 0.2447
vn -0.1917 -0.1927 0.9623
vn -0.1420 -0.6872 0.7124
vn -0.0422 -0.9764 0.2117
vn -0.1927 0.1662 0.9671
vn -0.1494 0.6447 0.7497
vn -0.0488 0.9684 0.2447
vn -0.5458 -0.1927 0.8155
vn -0.4042 -0.6871 0.6038
vn -0.1202 -0.9764 0.1794
vn -0.5485 0.1661 0.8195
vn -0.4253 0.6446 0.6353
vn -0.1389 0.9683 0.2074
vn -0.8163 -0.1925 0.5445
vn -0.6046 -0.6870 0.4032
vn -0.1798 -0.9764 0.1199
vn -0.8204 0.1660 0.5472
vn -0.6362 0.6444 0.4243
vn -0.2078 0.9683 0.1385
vn -0.9625 -0.1925 0.1911
vn -0.7129 -0.6869 0.1415
vn -0.2120 -0.9764 0.0421
vn -0.9672 0.1660 0.1921
vn -0.7501 0.6443 0.1489
vn -0.2450 0.9683 0.0486
vn -0.7129 -0.6869 -0.1415
vn -0.2120 -0.9764 -0.0421
vn -0.9672 0.1660 -0.1921
vn -0.7501 0.6443 -0.1489
vn -0.2450 0.9683 -0.0486
vn -0.6046 -0.6870 -0.4032
vn -0.1798 -0.9764 -0.1199
vn -0.8204 0.1660 -0.5472
vn -0.6362 0.6444 -0.4243
vn -0.2078 0.9683 -0.1385
vn -0.4042 -0.6871 -0.6038
vn -0.1202 -0.9764 -0.1794
vn -0.5485 0.1661 -0.8195
vn -0.4253 0.6446 -0.6353
vn -0.1389 0.9683 -0.2074
vn -0.1420 -0.6872 -0.7124
vn -0.0422 -0.9764 -0.2117
vn -0.1927 0.1662 -0.9671
vn -0.1494 0.6447 -0.7497
vn -0.0488 0.9684 -0.2447
vn -0.0000 1.0000 0.0000
vn 0.0000 -1.0000 0.0000
vn -0.5221 -0.3449 -0.7800
vn -0.1834 -0.3449 -0.9205
vn 0.7809 -0.3450 -0.5208
vn 0.9206 -0.3450 -0.1828
vn 0.9206 -0.3450 0.1828
vn 0.7809 -0.3450 0.5208
vn 0.5221 -0.3449 0.7800
vn 0.1834 -0.3449 0.9205
vn -0.1834 -0.3449 0.9205
vn -0.5221 -0.3449 0.7800
vn -0.7809 -0.3450 0.5208
vn -0.9206 -0.3450 0.1828
vn -0.9206 -0.3450 -0.1828
vn -0.7809 -0.3450 -0.5208
vn 0.1834 -0.3449 -0.9205
vn 0.5221 -0.3449 -0.7800
vn 0.7279 -0.6703 -0.1445
vn 0.6174 -0.6703 -0.4118
vn 0.7990 0.2783 -0.5330
vn 0.9421 0.2783 -0.1871
vn 0.7279 -0.6703 0.1445
vn 0.9421 0.2783 0.1871
vn 0.6174 -0.6703 0.4118
vn 0.7990 0.2783 0.5330
vn 0.4128 -0.6703 0.6167
vn 0.5342 0.2784 0.7982
vn 0.1450 -0.6703 0.7278
vn 0.1877 0.2785 0.9419
vn -0.1450 -0.6703 0.7278
vn -0.1877 0.2785 0.9419
vn -0.4128 -0.6703 0.6167
vn -0.5342 0.2784 0.7982
vn -0.6174 -0.6703 0.4118
vn -0.7990 0.2783 0.5330
vn -0.7279 -0.6703 0.1445
vn -0.9421 0.2783 0.1871
vn -0.7279 -0.6703 -0.1445
vn -0.6174 -0.6703 -0.4118
vn -0.4128 -0.6703 -0.6167
vn -0.3945 0.9155 -0.0783
vn -0.3346 0.9156 -0.2231
vn -0.5526 0.7475 -0.3686
vn -0.6516 0.7474 -0.1294
vn -0.1450 -0.6703 -0.7278
vn 0.1877 0.2785 -0.9419
vn 0.4128 -0.6703 -0.6167
vn 0.5342 0.2784 -0.7982
vn 0.1450 -0.6703 -0.7278
vn -0.2236 0.9157 -0.3340
vn -0.3694 0.7476 -0.5519
usemtl tiny_treats_1
s 1
f 59/1/1 162/2/2 156/3/3 63/4/4
f 124/5/5 128/6/6 160/7/7 155/8/8
f 126/9/9 122/10/10 154/11/11 158/12/12
f 122/10/10 120/13/13 151/14/14 154/11/11
f 120/13/13 118/15/15 149/16/16 151/14/14
f 118/15/15 116/17/17 147/18/18 149/16/16
f 116/17/17 114/19/19 145/20/20 147/18/18
f 114/19/19 112/21/21 143/22/22 145/20/20
f 112/21/21 110/23/23 141/24/24 143/22/22
f 110/23/23 108/25/25 139/26/26 141/24/24
f 108/25/25 106/27/27 137/28/28 139/26/26
f 51/29/29 134/30/30 132/31/31 55/32/32
f 106/27/27 104/33/33 135/34/34 137/28/28
f 128/6/6 126/9/9 158/12/12 160/7/7
f 2/35/35 7/36/36 8/37/37 3/38/38
f 3/38/38 8/37/37 83/39/39 84/40/40
f 9/41/41 5/42/42 6/43/43 10/44/44
f 10/45/44 6/46/43 67/47/45 68/48/46
f 7/36/36 11/49/47 12/50/48 8/37/37
f 8/37/37 12/50/48 85/51/49 83/39/39
f 13/52/50 9/41/41 10/44/44 14/53/51
f 14/54/51 10/45/44 68/48/46 69/55/52
f 11/49/47 15/56/53 16/57/54 12/50/48
f 12/50/48 16/57/54 86/58/55 85/51/49
f 17/59/56 13/52/50 14/53/51 18/60/57
f 18/61/57 14/54/51 69/55/52 70/62/58
f 15/56/53 19/63/59 20/64/60 16/57/54
f 16/57/54 20/64/60 87/65/61 86/58/55
f 21/66/62 17/59/56 18/60/57 22/67/63
f 22/68/63 18/61/57 70/62/58 71/69/64
f 19/63/59 23/70/65 24/71/66 20/64/60
f 20/64/60 24/71/66 88/72/67 87/65/61
f 25/73/68 21/66/62 22/67/63 26/74/69
f 26/75/69 22/68/63 71/69/64 72/76/70
f 23/70/65 27/77/71 28/78/72 24/71/66
f 24/71/66 28/78/72 89/79/73 88/72/67
f 29/80/74 25/73/68 26/74/69 30/81/75
f 30/82/75 26/75/69 72/76/70 73/83/76
f 27/77/71 31/84/77 32/85/78 28/78/72
f 28/78/72 32/85/78 90/86/79 89/79/73
f 33/87/80 29/80/74 30/81/75 34/88/81
f 34/89/81 30/82/75 73/83/76 74/90/82
f 31/84/77 35/91/83 36/92/84 32/85/78
f 32/85/78 36/92/84 91/93/85 90/86/79
f 37/94/86 33/87/80 34/88/81 38/95/87
f 38/96/87 34/89/81 74/90/82 75/97/88
f 35/91/83 39/98/89 40/99/90 36/92/84
f 36/92/84 40/99/90 92/100/91 91/93/85
f 41/101/92 37/94/86 38/95/87 42/102/93
f 42/103/93 38/96/87 75/97/88 76/104/94
f 39/98/89 43/105/95 44/106/96 40/99/90
f 40/99/90 44/106/96 93/107/97 92/100/91
f 45/108/98 41/101/92 42/102/93 46/109/99
f 46/110/99 42/103/93 76/104/94 77/111/100
f 43/105/95 47/112/101 48/113/102 44/106/96
f 44/106/96 48/113/102 94/114/103 93/107/97
f 49/115/104 45/108/98 46/109/99 50/116/105
f 50/117/105 46/110/99 77/111/100 78/118/106
f 47/112/101 51/119/29 52/120/107 48/113/102
f 48/113/102 52/120/107 95/121/108 94/114/103
f 53/122/109 49/115/104 50/116/105 54/123/110
f 54/124/110 50/117/105 78/118/106 79/125/111
f 51/119/29 55/126/32 56/127/112 52/120/107
f 52/120/107 56/127/112 96/128/113 95/121/108
f 57/129/114 53/122/109 54/123/110 58/130/115
f 58/131/115 54/124/110 79/125/111 80/132/116
f 55/126/32 59/133/1 60/134/117 56/127/112
f 56/127/112 60/134/117 97/135/118 96/128/113
f 61/136/119 57/129/114 58/130/115 62/137/120
f 62/138/120 58/131/115 80/132/116 81/139/121
f 59/133/1 63/140/4 64/141/122 60/134/117
f 60/134/117 64/141/122 98/142/123 97/135/118
f 65/143/124 61/136/119 62/137/120 66/144/125
f 66/145/125 62/138/120 81/139/121 82/146/126
f 63/140/4 2/35/35 3/38/38 64/141/122
f 64/141/122 3/38/38 84/40/40 98/142/123
f 5/42/42 65/143/124 66/144/125 6/43/43
f 6/46/43 66/145/125 82/146/126 67/47/45
f 4/147/127 68/148/46 67/149/45
f 4/147/127 69/150/52 68/148/46
f 4/147/127 70/151/58 69/150/52
f 4/147/127 71/152/64 70/151/58
f 4/147/127 72/153/70 71/152/64
f 4/147/127 73/154/76 72/153/70
f 4/147/127 74/155/82 73/154/76
f 4/147/127 75/156/88 74/155/82
f 4/147/127 76/157/94 75/156/88
f 4/147/127 77/158/100 76/157/94
f 4/147/127 78/159/106 77/158/100
f 4/147/127 79/160/111 78/159/106
f 4/147/127 80/161/116 79/160/111
f 4/147/127 81/162/121 80/161/116
f 4/147/127 82/163/126 81/162/121
f 4/147/127 67/149/45 82/163/126
f 1/164/128 84/165/40 83/166/39
f 1/164/128 83/166/39 85/167/49
f 1/164/128 85/167/49 86/168/55
f 1/164/128 86/168/55 87/169/61
f 1/164/128 87/169/61 88/170/67
f 1/164/128 88/170/67 89/171/73
f 1/164/128 89/171/73 90/172/79
f 1/164/128 90/172/79 91/173/85
f 1/164/128 91/173/85 92/174/91
f 1/164/128 92/174/91 93/175/97
f 1/164/128 93/175/97 94/176/103
f 1/164/128 94/176/103 95/177/108
f 1/164/128 95/177/108 96/178/113
f 1/164/128 96/178/113 97/179/118
f 1/164/128 97/179/118 98/180/123
f 1/164/128 98/180/123 84/165/40
f 129/181/129 61/136/119 65/143/124 123/182/130
f 121/183/131 13/52/50 17/59/56 119/184/132
f 119/184/132 17/59/56 21/66/62 117/185/133
f 117/185/133 21/66/62 25/73/68 115/186/134
f 115/186/134 25/73/68 29/80/74 113/187/135
f 113/187/135 29/80/74 33/87/80 111/188/136
f 111/188/136 33/87/80 37/94/86 109/189/137
f 109/189/137 37/94/86 41/101/92 107/190/138
f 107/190/138 41/101/92 45/108/98 105/191/139
f 105/191/139 45/108/98 49/115/104 103/192/140
f 103/192/140 49/115/104 53/122/109 101/193/141
f 101/193/141 53/122/109 57/129/114 99/194/142
f 99/194/142 57/129/114 61/136/119 129/181/129
f 123/182/130 65/143/124 5/42/42 127/195/143
f 125/196/144 9/41/41 13/52/50 121/183/131
f 127/195/143 5/42/42 9/41/41 125/196/144
f 121/197/131 119/198/132 120/199/145 122/200/146
f 11/201/47 153/202/147 152/203/148 15/204/53
f 119/198/132 117/205/133 118/206/149 120/199/145
f 15/204/53 152/203/148 150/207/150 19/208/59
f 117/205/133 115/209/134 116/210/151 118/206/149
f 19/208/59 150/207/150 148/211/152 23/212/65
f 115/209/134 113/213/135 114/214/153 116/210/151
f 23/212/65 148/211/152 146/215/154 27/216/71
f 113/213/135 111/217/136 112/218/155 114/214/153
f 27/216/71 146/215/154 144/219/156 31/220/77
f 111/217/136 109/221/137 110/222/157 112/218/155
f 31/220/77 144/219/156 142/223/158 35/224/83
f 109/221/137 107/225/138 108/226/159 110/222/157
f 35/224/83 142/223/158 140/227/160 39/228/89
f 107/225/138 105/229/139 106/230/161 108/226/159
f 39/228/89 140/227/160 138/231/162 43/232/95
f 105/229/139 103/233/140 104/234/163 106/230/161
f 43/232/95 138/231/162 136/235/164 47/236/101
f 103/233/140 101/237/141 102/238/165 104/234/163
f 47/236/101 136/235/164 134/30/30 51/29/29
f 101/237/141 99/239/142 100/240/166 102/238/165
f 55/32/32 132/31/31 162/2/2 59/1/1
f 99/239/142 129/241/129 130/242/167 100/240/166
f 102/243/168 100/244/169 131/245/170 133/246/171
f 129/241/129 123/247/130 124/248/172 130/242/167
f 63/4/4 156/3/3 159/249/173 2/250/35
f 125/251/144 121/197/131 122/200/146 126/252/174
f 7/253/36 157/254/175 153/202/147 11/201/47
f 127/255/143 125/251/144 126/252/174 128/256/176
f 2/250/35 159/249/173 157/254/175 7/253/36
f 123/247/130 127/255/143 128/256/176 124/248/172
f 130/257/177 124/5/5 155/8/8 161/258/178
f 104/33/33 102/243/168 133/246/171 135/34/34
f 152/259/148 153/260/147 154/261/11 151/262/14
f 150/263/150 152/259/148 151/262/14 149/264/16
f 148/265/152 150/263/150 149/264/16 147/266/18
f 146/267/154 148/265/152 147/266/18 145/268/20
f 144/269/156 146/267/154 145/268/20 143/270/22
f 142/271/158 144/269/156 143/270/22 141/272/24
f 140/273/160 142/271/158 141/272/24 139/274/26
f 138/275/162 140/273/160 139/274/26 137/276/28
f 136/277/164 138/275/162 137/276/28 135/278/34
f 134/279/30 136/277/164 135/278/34 133/280/171
f 132/281/31 134/279/30 133/280/171 131/282/170
f 162/283/2 132/281/31 131/282/170 161/284/178
f 156/285/3 162/283/2 161/284/178 155/286/8
f 153/260/147 157/287/175 158/288/12 154/261/11
f 157/287/175 159/289/173 160/290/7 158/288/12
f 159/289/173 156/285/3 155/286/8 160/290/7
f 100/244/169 130/257/177 161/258/178 131/245/170
