# Blender v3.4.1 OBJ File: 'Tiny_Treats_Bubbly_Bathroom_ASSETS_EXPORT.blend'
# www.blender.org
mtllib floor_tiled.mtl
o floor_tiled
v -1.000000 -0.500000 1.000000
v -1.000000 -0.050000 1.000000
v -1.000000 -0.500000 -1.000000
v -1.000000 -0.050000 -1.000000
v 1.000000 -0.500000 1.000000
v 1.000000 -0.050000 1.000000
v 1.000000 -0.500000 -1.000000
v 1.000000 -0.050000 -1.000000
v -0.383333 -0.050000 1.000000
v -0.383333 0.000000 0.950000
v -0.950000 -0.050000 1.000000
v -0.950000 0.000000 0.950000
v -1.000000 -0.050000 0.950000
v -0.383333 -0.050000 0.333333
v -0.383333 0.000000 0.383333
v -1.000000 -0.050000 0.383333
v -0.950000 0.000000 0.383333
v 0.283334 -0.050000 1.000000
v 0.283334 0.000000 0.950000
v -0.283333 -0.050000 1.000000
v -0.283333 0.000000 0.950000
v -0.333333 -0.050000 0.950000
v 0.333333 -0.050000 0.383333
v 0.283334 -0.050000 0.333333
v 0.283334 0.000000 0.383333
v -0.333333 -0.050000 0.383333
v -0.283333 0.000000 0.383333
v 0.950000 -0.050000 1.000000
v 1.000000 -0.050000 0.950000
v 0.950000 0.000000 0.950000
v 0.383334 -0.050000 1.000000
v 0.383334 0.000000 0.950000
v 0.333333 -0.050000 0.950000
v 1.000000 -0.050000 0.383333
v 0.950000 0.000000 0.383333
v 0.383334 0.000000 0.383333
v -0.383333 0.000000 0.283333
v -0.950000 -0.050000 0.333333
v -0.950000 0.000000 0.283333
v -1.000000 -0.050000 0.283333
v -0.333333 -0.050000 -0.283333
v -0.383333 0.000000 -0.283333
v -1.000000 -0.050000 -0.283333
v -0.950000 0.000000 -0.283333
v -0.950000 -0.050000 -0.333333
v 0.333333 -0.050000 0.283333
v 0.283334 0.000000 0.283333
v -0.283333 -0.050000 0.333333
v -0.283333 0.000000 0.283333
v -0.333333 -0.050000 0.283333
v 0.333333 -0.050000 -0.283333
v 0.283334 -0.050000 -0.333333
v 0.283334 0.000000 -0.283333
v -0.283333 0.000000 -0.283333
v 0.950000 -0.050000 0.333333
v 1.000000 -0.050000 0.283333
v 0.950000 0.000000 0.283333
v 0.383334 -0.050000 0.333333
v 0.383334 0.000000 0.283333
v 1.000000 -0.050000 -0.283333
v 0.950000 0.000000 -0.283333
v 0.383334 0.000000 -0.283333
v 0.383334 -0.050000 -0.333333
v -0.383333 -0.050000 -0.333333
v -0.383333 0.000000 -0.383333
v -0.950000 0.000000 -0.383333
v -1.000000 -0.050000 -0.383333
v -0.333333 -0.050000 -0.950000
v -0.383333 -0.050000 -1.000000
v -0.383333 0.000000 -0.950000
v -1.000000 -0.050000 -0.950000
v -0.950000 0.000000 -0.950000
v -0.950000 -0.050000 -1.000000
v 0.283334 0.000000 -0.383333
v -0.283333 -0.050000 -0.333333
v -0.283333 0.000000 -0.383333
v -0.333333 -0.050000 -0.383333
v 0.283334 -0.050000 -1.000000
v 0.283334 0.000000 -0.950000
v -0.283333 0.000000 -0.950000
v -0.283333 -0.050000 -1.000000
v 0.950000 -0.050000 -0.333333
v 1.000000 -0.050000 -0.383333
v 0.950000 0.000000 -0.383333
v 0.383334 0.000000 -0.383333
v 0.333333 -0.050000 -0.383333
v 1.000000 -0.050000 -0.950000
v 0.950000 -0.050000 -1.000000
v 0.950000 0.000000 -0.950000
v 0.333333 -0.050000 -0.950000
v 0.383334 0.000000 -0.950000
v 0.383334 -0.050000 -1.000000
vt 0.353647 0.619331
vt 0.271352 0.619331
vt 0.271352 0.592782
vt 0.353647 0.592782
vt 0.271352 0.619331
vt 0.353647 0.619331
vt 0.353647 0.592782
vt 0.271352 0.592782
vt 0.296726 0.657218
vt 0.273409 0.657218
vt 0.273409 0.657218
vt 0.296726 0.657218
vt 0.296726 0.669524
vt 0.298784 0.669524
vt 0.296726 0.672843
vt 0.273409 0.669524
vt 0.273409 0.672843
vt 0.271352 0.669524
vt 0.298784 0.669524
vt 0.296726 0.669524
vt 0.296726 0.672843
vt 0.271352 0.669524
vt 0.273409 0.672843
vt 0.273409 0.669524
vt 0.324158 0.657218
vt 0.300841 0.657218
vt 0.300841 0.657218
vt 0.324158 0.657218
vt 0.324158 0.669524
vt 0.326215 0.669524
vt 0.324158 0.672843
vt 0.300841 0.669524
vt 0.300841 0.672843
vt 0.326215 0.669524
vt 0.324158 0.669524
vt 0.324158 0.672843
vt 0.300841 0.672843
vt 0.300841 0.669524
vt 0.351590 0.657218
vt 0.328273 0.657218
vt 0.328273 0.657218
vt 0.351590 0.657218
vt 0.351590 0.669524
vt 0.353647 0.669524
vt 0.351590 0.672843
vt 0.328273 0.669524
vt 0.328273 0.672843
vt 0.353647 0.669524
vt 0.351590 0.669524
vt 0.351590 0.672843
vt 0.328273 0.672843
vt 0.328273 0.669524
vt 0.296726 0.657218
vt 0.273409 0.657218
vt 0.273409 0.657218
vt 0.296726 0.657218
vt 0.298784 0.669524
vt 0.296726 0.672843
vt 0.273409 0.672843
vt 0.271352 0.669524
vt 0.298784 0.669524
vt 0.296726 0.669524
vt 0.296726 0.672843
vt 0.271352 0.669524
vt 0.273409 0.672843
vt 0.273409 0.669524
vt 0.324158 0.657218
vt 0.300841 0.657218
vt 0.300841 0.657218
vt 0.324158 0.657218
vt 0.326215 0.669524
vt 0.324158 0.672843
vt 0.300841 0.672843
vt 0.326215 0.669524
vt 0.324158 0.669524
vt 0.324158 0.672843
vt 0.300841 0.672843
vt 0.300841 0.669524
vt 0.351590 0.657218
vt 0.328273 0.657218
vt 0.328273 0.657218
vt 0.351590 0.657218
vt 0.353647 0.669524
vt 0.351590 0.672843
vt 0.328273 0.672843
vt 0.353647 0.669524
vt 0.351590 0.669524
vt 0.351590 0.672843
vt 0.328273 0.672843
vt 0.328273 0.669524
vt 0.296726 0.657218
vt 0.273409 0.657218
vt 0.273409 0.657218
vt 0.296726 0.657218
vt 0.298784 0.669524
vt 0.296726 0.672843
vt 0.273409 0.672843
vt 0.271352 0.669524
vt 0.298784 0.669524
vt 0.296726 0.669524
vt 0.296726 0.672843
vt 0.271352 0.669524
vt 0.273409 0.672843
vt 0.273409 0.669524
vt 0.324158 0.657218
vt 0.300841 0.657218
vt 0.300841 0.657218
vt 0.324158 0.657218
vt 0.326215 0.669524
vt 0.324158 0.672843
vt 0.300841 0.672843
vt 0.326215 0.669524
vt 0.324158 0.669524
vt 0.324158 0.672843
vt 0.300841 0.672843
vt 0.300841 0.669524
vt 0.351590 0.657218
vt 0.328273 0.657218
vt 0.328273 0.657218
vt 0.351590 0.657218
vt 0.353647 0.669524
vt 0.351590 0.672843
vt 0.328273 0.672843
vt 0.353647 0.669524
vt 0.351590 0.669524
vt 0.351590 0.672843
vt 0.328273 0.672843
vt 0.328273 0.669524
vn 0.0000 0.0000 1.0000
vn 0.0000 0.0000 -1.0000
vn 0.0000 -1.0000 0.0000
vn 0.0000 1.0000 0.0000
vn 1.0000 0.0000 0.0000
vn -1.0000 0.0000 0.0000
vn 0.3416 0.8756 -0.3416
vn -0.3416 0.8756 -0.3416
vn -0.3416 0.8756 0.3416
vn 0.3416 0.8756 0.3416
vn 0.2418 0.6861 0.6861
vn 0.6861 0.6861 0.2418
vn -0.2418 0.6861 0.6861
vn -0.6861 0.6861 0.2418
vn 0.6861 0.6861 -0.2418
vn 0.2418 0.6861 -0.6861
vn -0.6861 0.6861 -0.2418
vn -0.2418 0.6861 -0.6861
usemtl tiny_treats_1
s 1
f 6/1/1 2/2/1 1/3/1 5/4/1
f 4/5/2 8/6/2 7/7/2 3/8/2
f 7/7/3 5/4/3 1/3/3 3/8/3
f 4/5/4 2/2/4 6/1/4 8/6/4
f 8/6/5 6/1/5 5/4/5 7/7/5
f 2/2/6 4/5/6 3/8/6 1/3/6
f 15/9/7 17/10/8 12/11/9 10/12/10
f 9/13/11 22/14/12 10/15/10
f 11/16/13 12/17/9 13/18/14
f 26/19/15 14/20/16 15/21/7
f 16/22/17 17/23/8 38/24/18
f 10/15/10 12/17/9 11/16/13 9/13/11
f 15/21/7 10/15/10 22/14/12 26/19/15
f 12/17/9 17/23/8 16/22/17 13/18/14
f 17/23/8 15/21/7 14/20/16 38/24/18
f 25/25/7 27/26/8 21/27/9 19/28/10
f 18/29/11 33/30/12 19/31/10
f 20/32/13 21/33/9 22/14/14
f 23/34/15 24/35/16 25/36/7
f 26/19/17 27/37/8 48/38/18
f 19/31/10 21/33/9 20/32/13 18/29/11
f 25/36/7 19/31/10 33/30/12 23/34/15
f 21/33/9 27/37/8 26/19/17 22/14/14
f 27/37/8 25/36/7 24/35/16 48/38/18
f 35/39/7 36/40/8 32/41/9 30/42/10
f 28/43/11 29/44/12 30/45/10
f 31/46/13 32/47/9 33/30/14
f 34/48/15 55/49/16 35/50/7
f 23/34/17 36/51/8 58/52/18
f 30/45/10 32/47/9 31/46/13 28/43/11
f 35/50/7 30/45/10 29/44/12 34/48/15
f 32/47/9 36/51/8 23/34/17 33/30/14
f 36/51/8 35/50/7 55/49/16 58/52/18
f 42/53/7 44/54/8 39/55/9 37/56/10
f 14/20/11 50/57/12 37/58/10
f 38/24/13 39/59/9 40/60/14
f 41/61/15 64/62/16 42/63/7
f 43/64/17 44/65/8 45/66/18
f 37/58/10 39/59/9 38/24/13 14/20/11
f 42/63/7 37/58/10 50/57/12 41/61/15
f 39/59/9 44/65/8 43/64/17 40/60/14
f 44/65/8 42/63/7 64/62/16 45/66/18
f 53/67/7 54/68/8 49/69/9 47/70/10
f 24/35/11 46/71/12 47/72/10
f 48/38/13 49/73/9 50/57/14
f 51/74/15 52/75/16 53/76/7
f 41/61/17 54/77/8 75/78/18
f 47/72/10 49/73/9 48/38/13 24/35/11
f 53/76/7 47/72/10 46/71/12 51/74/15
f 49/73/9 54/77/8 41/61/17 50/57/14
f 54/77/8 53/76/7 52/75/16 75/78/18
f 61/79/7 62/80/8 59/81/9 57/82/10
f 55/49/11 56/83/12 57/84/10
f 58/52/13 59/85/9 46/71/14
f 60/86/15 82/87/16 61/88/7
f 51/74/17 62/89/8 63/90/18
f 57/84/10 59/85/9 58/52/13 55/49/11
f 61/88/7 57/84/10 56/83/12 60/86/15
f 59/85/9 62/89/8 51/74/17 46/71/14
f 62/89/8 61/88/7 82/87/16 63/90/18
f 70/91/7 72/92/8 66/93/9 65/94/10
f 64/62/11 77/95/12 65/96/10
f 45/66/13 66/97/9 67/98/14
f 68/99/15 69/100/16 70/101/7
f 71/102/17 72/103/8 73/104/18
f 65/96/10 66/97/9 45/66/13 64/62/11
f 70/101/7 65/96/10 77/95/12 68/99/15
f 66/97/9 72/103/8 71/102/17 67/98/14
f 72/103/8 70/101/7 69/100/16 73/104/18
f 79/105/7 80/106/8 76/107/9 74/108/10
f 52/75/11 86/109/12 74/110/10
f 75/78/13 76/111/9 77/95/14
f 90/112/15 78/113/16 79/114/7
f 68/99/17 80/115/8 81/116/18
f 74/110/10 76/111/9 75/78/13 52/75/11
f 79/114/7 74/110/10 86/109/12 90/112/15
f 76/111/9 80/115/8 68/99/17 77/95/14
f 80/115/8 79/114/7 78/113/16 81/116/18
f 89/117/7 91/118/8 85/119/9 84/120/10
f 82/87/11 83/121/12 84/122/10
f 63/90/13 85/123/9 86/109/14
f 87/124/15 88/125/16 89/126/7
f 90/112/17 91/127/8 92/128/18
f 84/122/10 85/123/9 63/90/13 82/87/11
f 89/126/7 84/122/10 83/121/12 87/124/15
f 85/123/9 91/127/8 90/112/17 86/109/14
f 91/127/8 89/126/7 88/125/16 92/128/18
