# Blender v3.4.1 OBJ File: 'Tiny_Treats_Bubbly_Bathroom_ASSETS_EXPORT.blend'
# www.blender.org
mtllib mat.mtl
o mat
v -0.500306 0.000000 0.649764
v -1.000070 0.000000 0.149529
v -0.691630 0.000000 0.611614
v -0.853791 0.000000 0.503151
v -0.962101 0.000000 0.340888
v -0.579822 0.100006 0.203669
v -1.000070 0.050000 0.149529
v -0.500306 0.050000 0.649764
v -0.962101 0.050000 0.340888
v -0.853791 0.050000 0.503151
v -0.691630 0.050000 0.611614
v -0.999929 0.000000 -0.150471
v -0.499694 0.000000 -0.650236
v -0.961779 0.000000 -0.341795
v -0.853316 0.000000 -0.503956
v -0.691053 0.000000 -0.612265
v -0.518185 0.100006 0.296010
v -0.499694 0.050000 -0.650236
v -0.999929 0.050000 -0.150471
v -0.691053 0.050000 -0.612266
v -0.853316 0.050000 -0.503956
v -0.961779 0.050000 -0.341795
v 0.999929 0.000000 0.150471
v 0.499694 0.000000 0.650236
v 0.961779 0.000000 0.341795
v 0.853316 0.000000 0.503956
v 0.691053 0.000000 0.612265
v -0.425902 0.100006 0.357734
v 0.499694 0.050000 0.650236
v 0.999929 0.050000 0.150471
v 0.691053 0.050000 0.612265
v 0.853316 0.050000 0.503956
v 0.961779 0.050000 0.341795
v 0.500306 0.000000 -0.649764
v 1.000070 0.000000 -0.149529
v 0.691630 0.000000 -0.611614
v 0.853791 0.000000 -0.503151
v 0.962101 0.000000 -0.340888
v -0.313903 0.100006 0.380067
v 1.000070 0.050000 -0.149529
v 0.500306 0.050000 -0.649764
v 0.962101 0.050000 -0.340888
v 0.853791 0.050000 -0.503151
v 0.691630 0.050000 -0.611614
v -0.495358 0.100000 0.599767
v -0.672099 0.100000 0.564524
v -0.817726 0.100000 0.467120
v -0.914992 0.100000 0.321401
v -0.950068 0.100000 0.144628
v -0.671566 0.100000 -0.565157
v -0.494793 0.100000 -0.600233
v -0.817285 0.100000 -0.467891
v -0.914689 0.100000 -0.322264
v -0.949932 0.100000 -0.145523
v 0.914992 0.100000 -0.321401
v 0.950068 0.100000 -0.144628
v 0.817726 0.100000 -0.467120
v 0.672099 0.100000 -0.564524
v 0.495358 0.100000 -0.599767
v 0.671566 0.100000 0.565157
v 0.494793 0.100000 0.600233
v 0.817285 0.100000 0.467891
v 0.914689 0.100000 0.322264
v 0.949932 0.100000 0.145523
v -0.400330 0.100003 0.484709
v -0.543165 0.100003 0.456227
v -0.660855 0.100003 0.377509
v -0.739462 0.100003 0.259745
v -0.767809 0.100003 0.116883
v -0.542734 0.100003 -0.456739
v -0.399873 0.100003 -0.485086
v -0.660499 0.100003 -0.378132
v -0.739217 0.100003 -0.260441
v -0.767699 0.100003 -0.117606
v 0.739463 0.100003 -0.259744
v 0.767810 0.100003 -0.116882
v 0.660855 0.100003 -0.377509
v 0.543165 0.100003 -0.456227
v 0.400330 0.100003 -0.484709
v 0.542735 0.100003 0.456739
v 0.399873 0.100003 0.485086
v 0.660499 0.100003 0.378132
v 0.739218 0.100003 0.260442
v 0.767699 0.100003 0.117606
v -0.602049 0.100006 0.091649
v -0.425565 0.100006 -0.358135
v -0.313545 0.100006 -0.380362
v -0.517905 0.100006 -0.296498
v -0.579630 0.100006 -0.204215
v -0.601962 0.100006 -0.092216
v 0.579823 0.100006 -0.203669
v 0.602050 0.100006 -0.091649
v 0.518186 0.100006 -0.296010
v 0.425904 0.100006 -0.357734
v 0.313905 0.100006 -0.380066
v 0.425566 0.100006 0.358135
v 0.313546 0.100006 0.380363
v 0.517907 0.100006 0.296498
v 0.579631 0.100006 0.204216
v 0.601964 0.100006 0.092217
v -0.447797 0.100006 -0.226324
v 0.448012 0.100006 -0.225901
v -0.448011 0.100006 0.225902
v 0.447799 0.100006 0.226324
vt 0.399559 0.371983
vt 0.399559 0.378017
vt 0.398368 0.378017
vt 0.398368 0.371983
vt 0.460979 0.378017
vt 0.460979 0.371983
vt 0.466970 0.371983
vt 0.466970 0.378017
vt 0.399559 0.378017
vt 0.399559 0.371983
vt 0.398368 0.371983
vt 0.398368 0.378017
vt 0.408030 0.371983
vt 0.408030 0.378017
vt 0.402952 0.378017
vt 0.402952 0.371983
vt 0.402952 0.378017
vt 0.402952 0.371983
vt 0.414021 0.378017
vt 0.414021 0.371983
vt 0.467454 0.415300
vt 0.467454 0.415300
vt 0.407546 0.415300
vt 0.407546 0.415300
vt 0.414021 0.371983
vt 0.414021 0.378017
vt 0.460979 0.378017
vt 0.460979 0.371983
vt 0.475441 0.378017
vt 0.475441 0.371983
vt 0.476632 0.371983
vt 0.476632 0.378017
vt 0.408030 0.378017
vt 0.408030 0.371983
vt 0.472048 0.378017
vt 0.472048 0.371983
vt 0.466970 0.371983
vt 0.466970 0.378017
vt 0.475441 0.378017
vt 0.475441 0.371983
vt 0.476632 0.378017
vt 0.476632 0.371983
vt 0.472048 0.378017
vt 0.472048 0.371983
vt 0.414175 0.430925
vt 0.408641 0.430925
vt 0.408030 0.424892
vt 0.414021 0.424892
vt 0.404081 0.430925
vt 0.402952 0.424892
vt 0.401034 0.430925
vt 0.399559 0.424892
vt 0.399933 0.430925
vt 0.398368 0.424892
vt 0.408641 0.430925
vt 0.414175 0.430925
vt 0.414021 0.424892
vt 0.408030 0.424892
vt 0.404081 0.430925
vt 0.402952 0.424892
vt 0.401034 0.430925
vt 0.399559 0.424892
vt 0.399933 0.430925
vt 0.398368 0.424892
vt 0.473966 0.430925
vt 0.475067 0.430925
vt 0.476632 0.424892
vt 0.475441 0.424892
vt 0.470919 0.430925
vt 0.472048 0.424892
vt 0.466359 0.430925
vt 0.466970 0.424892
vt 0.460825 0.430925
vt 0.460979 0.424892
vt 0.466359 0.430925
vt 0.460825 0.430925
vt 0.460979 0.424892
vt 0.466970 0.424892
vt 0.470919 0.430925
vt 0.472048 0.424892
vt 0.473966 0.430925
vt 0.475441 0.424892
vt 0.475067 0.430925
vt 0.476632 0.424892
vt 0.466359 0.430925
vt 0.460825 0.430925
vt 0.414175 0.430925
vt 0.466359 0.430925
vt 0.470919 0.430925
vt 0.401034 0.430925
vt 0.399933 0.430925
vt 0.408641 0.430925
vt 0.404081 0.430925
vt 0.475067 0.430925
vt 0.473966 0.430925
vt 0.473966 0.430925
vt 0.475067 0.430925
vt 0.399933 0.430925
vt 0.470919 0.430925
vt 0.414175 0.430925
vt 0.460825 0.430925
vt 0.401034 0.430925
vt 0.404081 0.430925
vt 0.408641 0.430925
vt 0.401034 0.460389
vt 0.404081 0.460389
vt 0.404081 0.460389
vt 0.401034 0.460389
vt 0.473966 0.460389
vt 0.470919 0.460389
vt 0.470919 0.460389
vt 0.473966 0.460389
vt 0.399933 0.460389
vt 0.399933 0.460389
vt 0.399933 0.460389
vt 0.399933 0.460389
vt 0.408641 0.460389
vt 0.408641 0.460389
vt 0.475067 0.460389
vt 0.475067 0.460389
vt 0.473966 0.460389
vt 0.475067 0.460389
vt 0.475067 0.460389
vt 0.473966 0.460389
vt 0.414175 0.460389
vt 0.414175 0.460389
vt 0.401034 0.460389
vt 0.401034 0.460389
vt 0.470919 0.460389
vt 0.470919 0.460389
vt 0.404081 0.460389
vt 0.404081 0.460389
vt 0.466359 0.460389
vt 0.466359 0.460389
vt 0.408641 0.460389
vt 0.408641 0.460389
vt 0.460825 0.460389
vt 0.460825 0.460389
vt 0.460825 0.460389
vt 0.414175 0.460389
vt 0.414175 0.460389
vt 0.460825 0.460389
vt 0.466359 0.460389
vt 0.466359 0.460389
vt 0.408641 0.415300
vt 0.414175 0.415300
vt 0.404081 0.415300
vt 0.401034 0.415300
vt 0.399933 0.415300
vt 0.414175 0.415300
vt 0.408641 0.415300
vt 0.404081 0.415300
vt 0.401034 0.415300
vt 0.399933 0.415300
vt 0.475067 0.415300
vt 0.473966 0.415300
vt 0.470919 0.415300
vt 0.466359 0.415300
vt 0.460825 0.415300
vt 0.460825 0.415300
vt 0.466359 0.415300
vt 0.470919 0.415300
vt 0.473966 0.415300
vt 0.475067 0.415300
vn -0.9241 -0.0000 0.3822
vn -0.8581 0.3710 0.3550
vn -0.9224 0.3756 0.0904
vn -0.9952 -0.0000 0.0975
vn 0.0904 0.3756 0.9224
vn 0.0975 -0.0000 0.9952
vn 0.3822 -0.0000 0.9241
vn 0.3550 0.3710 0.8581
vn -0.8578 0.3710 -0.3558
vn -0.9237 -0.0000 -0.3831
vn -0.9951 -0.0000 -0.0985
vn -0.9223 0.3756 -0.0913
vn -0.3831 0.0000 0.9237
vn -0.3558 0.3710 0.8578
vn -0.6570 0.3710 0.6563
vn -0.7074 0.0000 0.7068
vn -0.6563 0.3710 -0.6570
vn -0.7068 -0.0000 -0.7074
vn -0.0913 0.3756 0.9223
vn -0.0985 0.0000 0.9951
vn 0.0000 1.0000 -0.0000
vn -0.0975 -0.0000 -0.9952
vn -0.0904 0.3756 -0.9224
vn 0.0913 0.3756 -0.9223
vn 0.0985 0.0000 -0.9951
vn 0.8578 0.3710 0.3558
vn 0.9237 -0.0000 0.3831
vn 0.9951 -0.0000 0.0985
vn 0.9223 0.3756 0.0913
vn -0.3550 0.3710 -0.8581
vn -0.3822 -0.0000 -0.9241
vn 0.6570 0.3710 -0.6563
vn 0.7074 0.0000 -0.7068
vn 0.3831 0.0000 -0.9237
vn 0.3558 0.3710 -0.8578
vn 0.8581 0.3710 -0.3550
vn 0.9241 0.0000 -0.3822
vn 0.9224 0.3756 -0.0904
vn 0.9952 -0.0000 -0.0975
vn 0.6563 0.3710 0.6570
vn 0.7068 0.0000 0.7074
vn -0.0396 0.9158 0.3996
vn -0.1599 0.9088 0.3854
vn -0.2952 0.9088 0.2949
vn -0.3855 0.9088 0.1595
vn -0.3997 0.9158 0.0392
vn -0.1595 0.9088 -0.3855
vn -0.0392 0.9158 -0.3997
vn -0.2949 0.9088 -0.2952
vn -0.3854 0.9088 -0.1598
vn -0.3996 0.9158 -0.0396
vn 0.3855 0.9088 -0.1595
vn 0.3997 0.9158 -0.0392
vn 0.2952 0.9088 -0.2949
vn 0.1599 0.9088 -0.3854
vn 0.0396 0.9158 -0.3996
vn 0.1595 0.9088 0.3855
vn 0.0392 0.9158 0.3997
vn 0.2949 0.9088 0.2952
vn 0.3854 0.9088 0.1598
vn 0.3996 0.9158 0.0395
vn 0.0000 -1.0000 0.0000
usemtl tiny_treats_1
s 1
f 5/1/1 9/2/2 7/3/3 2/4/4
f 29/5/5 24/6/6 27/7/7 31/8/8
f 22/9/9 14/10/10 12/11/11 19/12/12
f 3/13/13 11/14/14 10/15/15 4/16/16
f 21/17/17 15/18/18 14/10/10 22/9/9
f 24/6/6 29/5/5 8/19/19 1/20/20
f 4/16/16 10/15/15 9/2/2 5/1/1
f 104/21/21 102/22/21 101/23/21 103/24/21
f 2/4/4 7/3/3 19/12/12 12/11/11
f 13/25/22 18/26/23 41/27/24 34/28/25
f 33/29/26 25/30/27 23/31/28 30/32/29
f 20/33/30 16/34/31 15/18/18 21/17/17
f 18/26/23 13/25/22 16/34/31 20/33/30
f 43/35/32 37/36/33 36/37/34 44/38/35
f 42/39/36 38/40/37 37/36/33 43/35/32
f 40/41/38 35/42/39 38/40/37 42/39/36
f 32/43/40 26/44/41 25/30/27 33/29/26
f 44/38/35 36/37/34 34/28/25 41/27/24
f 31/8/8 27/7/7 26/44/41 32/43/40
f 35/42/39 40/41/38 30/32/29 23/31/28
f 1/20/20 8/19/19 11/14/14 3/13/13
f 45/45/42 46/46/43 11/47/14 8/48/19
f 46/46/43 47/49/44 10/50/15 11/47/14
f 47/49/44 48/51/45 9/52/2 10/50/15
f 48/51/45 49/53/46 7/54/3 9/52/2
f 50/55/47 51/56/48 18/57/23 20/58/30
f 52/59/49 50/55/47 20/58/30 21/60/17
f 53/61/50 52/59/49 21/60/17 22/62/9
f 54/63/51 53/61/50 22/62/9 19/64/12
f 55/65/52 56/66/53 40/67/38 42/68/36
f 57/69/54 55/65/52 42/68/36 43/70/32
f 58/71/55 57/69/54 43/70/32 44/72/35
f 59/73/56 58/71/55 44/72/35 41/74/24
f 60/75/57 61/76/58 29/77/5 31/78/8
f 62/79/59 60/75/57 31/78/8 32/80/40
f 63/81/60 62/79/59 32/80/40 33/82/26
f 64/83/61 63/81/60 33/82/26 30/84/29
f 49/53/46 54/63/51 19/64/12 7/54/3
f 61/76/58 45/45/42 8/48/19 29/77/5
f 30/84/29 40/67/38 56/66/53 64/83/61
f 41/74/24 18/57/23 51/56/48 59/73/56
f 61/76/58 60/75/57 80/85/21 81/86/21
f 45/45/42 61/76/58 81/86/21 65/87/21
f 57/69/54 58/71/55 78/88/21 77/89/21
f 49/53/46 48/51/45 68/90/21 69/91/21
f 47/49/44 46/46/43 66/92/21 67/93/21
f 63/81/60 64/83/61 84/94/21 83/95/21
f 56/66/53 55/65/52 75/96/21 76/97/21
f 54/63/51 49/53/46 69/91/21 74/98/21
f 60/75/57 62/79/59 82/99/21 80/85/21
f 59/73/56 51/56/48 71/100/21 79/101/21
f 52/59/49 53/61/50 73/102/21 72/103/21
f 58/71/55 59/73/56 79/101/21 78/88/21
f 51/56/48 50/55/47 70/104/21 71/100/21
f 55/65/52 57/69/54 77/89/21 75/96/21
f 64/83/61 56/66/53 76/97/21 84/94/21
f 48/51/45 47/49/44 67/93/21 68/90/21
f 46/46/43 45/45/42 65/87/21 66/92/21
f 62/79/59 63/81/60 83/95/21 82/99/21
f 53/61/50 54/63/51 74/98/21 73/102/21
f 50/55/47 52/59/49 72/103/21 70/104/21
f 13/25/62 34/28/62 24/6/62 1/20/62
f 1/20/62 3/13/62 16/34/62 13/25/62
f 3/13/62 4/16/62 15/18/62 16/34/62
f 4/16/62 5/1/62 14/10/62 15/18/62
f 5/1/62 2/4/62 12/11/62 14/10/62
f 34/28/62 36/37/62 27/7/62 24/6/62
f 36/37/62 37/36/62 26/44/62 27/7/62
f 37/36/62 38/40/62 25/30/62 26/44/62
f 38/40/62 35/42/62 23/31/62 25/30/62
f 68/105/21 67/106/21 17/107/21 6/108/21
f 75/109/21 77/110/21 93/111/21 91/112/21
f 74/113/21 69/114/21 85/115/21 90/116/21
f 67/106/21 66/117/21 28/118/21 17/107/21
f 76/119/21 75/109/21 91/112/21 92/120/21
f 83/121/21 84/122/21 100/123/21 99/124/21
f 66/117/21 65/125/21 39/126/21 28/118/21
f 73/127/21 74/113/21 90/116/21 89/128/21
f 82/129/21 83/121/21 99/124/21 98/130/21
f 72/131/21 73/127/21 89/128/21 88/132/21
f 80/133/21 82/129/21 98/130/21 96/134/21
f 70/135/21 72/131/21 88/132/21 86/136/21
f 81/137/21 80/133/21 96/134/21 97/138/21
f 79/139/21 71/140/21 87/141/21 95/142/21
f 71/140/21 70/135/21 86/136/21 87/141/21
f 78/143/21 79/139/21 95/142/21 94/144/21
f 84/122/21 76/119/21 92/120/21 100/123/21
f 69/114/21 68/105/21 6/108/21 85/115/21
f 77/110/21 78/143/21 94/144/21 93/111/21
f 65/125/21 81/137/21 97/138/21 39/126/21
f 103/24/21 28/145/21 39/146/21
f 103/24/21 17/147/21 28/145/21
f 103/24/21 6/148/21 17/147/21
f 103/24/21 85/149/21 6/148/21
f 101/23/21 87/150/21 86/151/21
f 101/23/21 86/151/21 88/152/21
f 101/23/21 88/152/21 89/153/21
f 101/23/21 89/153/21 90/154/21
f 102/22/21 92/155/21 91/156/21
f 102/22/21 91/156/21 93/157/21
f 102/22/21 93/157/21 94/158/21
f 102/22/21 94/158/21 95/159/21
f 104/21/21 97/160/21 96/161/21
f 104/21/21 96/161/21 98/162/21
f 104/21/21 98/162/21 99/163/21
f 104/21/21 99/163/21 100/164/21
f 103/24/21 101/23/21 90/154/21 85/149/21
f 104/21/21 103/24/21 39/146/21 97/160/21
f 102/22/21 104/21/21 100/164/21 92/155/21
f 101/23/21 102/22/21 95/159/21 87/150/21
