# Blender v3.4.1 OBJ File: 'Tiny_Treats_Bubbly_Bathroom_ASSETS_EXPORT.blend'
# www.blender.org
mtllib slippers.mtl
o slippers
v 0.200000 -0.000000 -0.299580
v 0.101743 -0.000000 -0.275210
v 0.041016 -0.000000 -0.211409
v 0.032312 -0.000000 -0.169460
v 0.367688 -0.000000 -0.169460
v 0.358984 -0.000000 -0.211409
v 0.298257 -0.000000 -0.275210
v 0.200000 0.050000 -0.278874
v 0.200000 0.030000 -0.299580
v 0.101743 0.030000 -0.275210
v 0.113643 0.050000 -0.257456
v 0.041016 0.030000 -0.211409
v 0.061128 0.050000 -0.202282
v 0.032312 0.030000 -0.169460
v 0.053923 0.050000 -0.167557
v 0.358984 0.030000 -0.211409
v 0.338872 0.050000 -0.202282
v 0.346077 0.050000 -0.167557
v 0.367688 0.030000 -0.169460
v 0.298257 0.030000 -0.275210
v 0.286357 0.050000 -0.257456
v 0.200000 -0.000000 0.290248
v 0.108792 -0.000000 0.267626
v 0.052422 -0.000000 0.208403
v 0.044342 -0.000000 0.169463
v 0.355658 -0.000000 0.169463
v 0.347578 -0.000000 0.208403
v 0.291208 -0.000000 0.267626
v 0.200000 0.050000 0.271028
v 0.200000 0.030000 0.290248
v 0.108792 0.030000 0.267626
v 0.119839 0.050000 0.251146
v 0.052422 0.030000 0.208403
v 0.071091 0.050000 0.199930
v 0.044342 0.030000 0.169463
v 0.064402 0.050000 0.167697
v 0.347578 0.030000 0.208403
v 0.328909 0.050000 0.199930
v 0.335598 0.050000 0.167697
v 0.355658 0.030000 0.169463
v 0.291208 0.030000 0.267626
v 0.280161 0.050000 0.251146
v 0.272328 0.148788 0.201880
v 0.127673 0.148788 0.201880
v 0.290142 0.086123 0.222039
v 0.200000 0.162985 0.218301
v 0.109858 0.086123 0.222039
v 0.200000 0.087156 0.262989
v 0.110657 0.164361 -0.012772
v 0.289344 0.164361 -0.012772
v 0.200000 0.200768 -0.012788
v 0.333230 0.086091 -0.012510
v 0.066770 0.086091 -0.012510
v 0.251287 0.071788 0.175312
v 0.241057 0.104496 0.163188
v 0.200001 0.112649 0.173103
v 0.158944 0.104496 0.163188
v 0.148714 0.071788 0.175312
v 0.200001 0.072585 0.199851
v 0.094997 0.077185 -0.043796
v 0.129716 0.140323 -0.044844
v 0.200000 0.169862 -0.044906
v 0.270285 0.140323 -0.044844
v 0.305003 0.077185 -0.043796
v 0.282688 0.158923 0.167916
v 0.117312 0.158923 0.167916
v 0.200000 0.188247 0.172624
v 0.317753 0.086704 0.174510
v 0.082248 0.086704 0.174510
v 0.200000 0.042263 0.268063
v 0.107390 0.042263 0.224802
v 0.292610 0.042263 0.224802
v 0.061201 0.042263 -0.009934
v 0.338800 0.042263 -0.009934
v 0.200000 0.205785 0.044153
v 0.292520 0.168408 0.044006
v 0.062269 0.087862 0.044263
v 0.107481 0.168408 0.044006
v 0.337731 0.087862 0.044263
v 0.200001 0.042263 0.203695
v 0.146718 0.042263 0.177547
v 0.253283 0.042263 0.177546
v 0.108190 0.074336 -0.031057
v 0.119192 0.153726 -0.041005
v 0.200000 0.154707 -0.031844
v 0.280809 0.153726 -0.041005
v 0.291811 0.074336 -0.031057
v 0.079404 0.081830 -0.040251
v 0.138600 0.128504 -0.031803
v 0.200000 0.187085 -0.041049
v 0.261400 0.128504 -0.031803
v 0.320597 0.081830 -0.040251
v 0.310098 0.042263 -0.038664
v 0.089903 0.042263 -0.038664
v 0.078347 0.042263 0.175830
v 0.321653 0.042263 0.175830
v 0.056791 0.042263 0.044647
v 0.343210 0.042263 0.044647
v 0.103774 0.042263 -0.026873
v 0.296227 0.042263 -0.026873
v 0.326200 0.042263 -0.035738
v 0.073801 0.042263 -0.035738
v -0.200000 -0.000000 -0.299580
v -0.101743 -0.000000 -0.275210
v -0.041016 -0.000000 -0.211409
v -0.032312 -0.000000 -0.169460
v -0.367688 -0.000000 -0.169460
v -0.358984 -0.000000 -0.211409
v -0.298257 -0.000000 -0.275210
v -0.200000 0.050000 -0.278874
v -0.200000 0.030000 -0.299580
v -0.101743 0.030000 -0.275210
v -0.113643 0.050000 -0.257456
v -0.041016 0.030000 -0.211409
v -0.061128 0.050000 -0.202282
v -0.032312 0.030000 -0.169460
v -0.053923 0.050000 -0.167557
v -0.358984 0.030000 -0.211409
v -0.338872 0.050000 -0.202282
v -0.346077 0.050000 -0.167557
v -0.367688 0.030000 -0.169460
v -0.298257 0.030000 -0.275210
v -0.286357 0.050000 -0.257456
v -0.200000 -0.000000 0.290248
v -0.108792 -0.000000 0.267626
v -0.052422 -0.000000 0.208403
v -0.044342 -0.000000 0.169463
v -0.355658 -0.000000 0.169463
v -0.347578 -0.000000 0.208403
v -0.291208 -0.000000 0.267626
v -0.200000 0.050000 0.271028
v -0.200000 0.030000 0.290248
v -0.108792 0.030000 0.267626
v -0.119839 0.050000 0.251146
v -0.052422 0.030000 0.208403
v -0.071091 0.050000 0.199930
v -0.044342 0.030000 0.169463
v -0.064402 0.050000 0.167697
v -0.347578 0.030000 0.208403
v -0.328909 0.050000 0.199930
v -0.335598 0.050000 0.167697
v -0.355658 0.030000 0.169463
v -0.291208 0.030000 0.267626
v -0.280161 0.050000 0.251146
v -0.272328 0.148788 0.201880
v -0.127673 0.148788 0.201880
v -0.290142 0.086123 0.222039
v -0.200000 0.162985 0.218301
v -0.109858 0.086123 0.222039
v -0.200000 0.087156 0.262989
v -0.110657 0.164361 -0.012772
v -0.289344 0.164361 -0.012772
v -0.200000 0.200768 -0.012788
v -0.333230 0.086091 -0.012510
v -0.066770 0.086091 -0.012510
v -0.251287 0.071788 0.175312
v -0.241057 0.104496 0.163188
v -0.200000 0.112649 0.173104
v -0.158944 0.104496 0.163188
v -0.148714 0.071788 0.175312
v -0.200000 0.072585 0.199851
v -0.094997 0.077185 -0.043796
v -0.129716 0.140323 -0.044844
v -0.200000 0.169862 -0.044906
v -0.270285 0.140323 -0.044844
v -0.305003 0.077185 -0.043796
v -0.282688 0.158923 0.167916
v -0.117312 0.158923 0.167916
v -0.200000 0.188247 0.172624
v -0.317753 0.086704 0.174510
v -0.082248 0.086704 0.174510
v -0.200000 0.042263 0.268063
v -0.107390 0.042263 0.224802
v -0.292610 0.042263 0.224802
v -0.061201 0.042263 -0.009934
v -0.338800 0.042263 -0.009934
v -0.200000 0.205785 0.044153
v -0.292520 0.168408 0.044006
v -0.062269 0.087862 0.044263
v -0.107481 0.168408 0.044006
v -0.337731 0.087862 0.044263
v -0.200000 0.042263 0.203695
v -0.146718 0.042263 0.177547
v -0.253283 0.042263 0.177547
v -0.108190 0.074336 -0.031057
v -0.119192 0.153726 -0.041005
v -0.200000 0.154707 -0.031844
v -0.280809 0.153726 -0.041004
v -0.291811 0.074336 -0.031057
v -0.079404 0.081830 -0.040251
v -0.138600 0.128504 -0.031803
v -0.200000 0.187085 -0.041049
v -0.261400 0.128504 -0.031803
v -0.320597 0.081830 -0.040251
v -0.310098 0.042263 -0.038664
v -0.089903 0.042263 -0.038664
v -0.078347 0.042263 0.175830
v -0.321653 0.042263 0.175830
v -0.056791 0.042263 0.044647
v -0.343210 0.042263 0.044647
v -0.103774 0.042263 -0.026873
v -0.296227 0.042263 -0.026873
v -0.326200 0.042263 -0.035738
v -0.073801 0.042263 -0.035738
vt 0.217760 0.398205
vt 0.217760 0.404977
vt 0.220730 0.404977
vt 0.220730 0.398205
vt 0.204869 0.398205
vt 0.204869 0.404977
vt 0.204869 0.404977
vt 0.204869 0.398205
vt 0.209982 0.404977
vt 0.209982 0.398205
vt 0.209982 0.398205
vt 0.209982 0.404977
vt 0.204868 0.404977
vt 0.204869 0.398205
vt 0.217760 0.398205
vt 0.217760 0.404977
vt 0.215081 0.443000
vt 0.215081 0.443000
vt 0.217710 0.443000
vt 0.215081 0.458625
vt 0.217710 0.458625
vt 0.220730 0.451852
vt 0.217760 0.451852
vt 0.208190 0.458625
vt 0.209982 0.451852
vt 0.203265 0.458625
vt 0.204869 0.451852
vt 0.208190 0.458625
vt 0.203264 0.458625
vt 0.204868 0.451852
vt 0.209982 0.451852
vt 0.215081 0.458625
vt 0.217760 0.451852
vt 0.203264 0.458625
vt 0.204869 0.451852
vt 0.204869 0.451852
vt 0.203265 0.458625
vt 0.204869 0.404977
vt 0.204869 0.398205
vt 0.217760 0.398205
vt 0.220730 0.398205
vt 0.220730 0.404977
vt 0.217760 0.404977
vt 0.209982 0.398205
vt 0.209982 0.404977
vt 0.209982 0.398205
vt 0.209982 0.404977
vt 0.217760 0.398205
vt 0.217760 0.404977
vt 0.215081 0.458625
vt 0.217760 0.451852
vt 0.220730 0.451852
vt 0.217710 0.458625
vt 0.208190 0.458625
vt 0.209982 0.451852
vt 0.208190 0.458625
vt 0.209982 0.451852
vt 0.215081 0.458625
vt 0.217760 0.451852
vt 0.203264 0.443000
vt 0.203264 0.443000
vt 0.203265 0.443000
vt 0.203265 0.443000
vt 0.208190 0.443000
vt 0.208190 0.443000
vt 0.208190 0.443000
vt 0.208190 0.443000
vt 0.215081 0.443000
vt 0.215081 0.443000
vt 0.217710 0.443000
vt 0.201816 0.431317
vt 0.205343 0.417971
vt 0.187500 0.418191
vt 0.187500 0.434341
vt 0.164192 0.418095
vt 0.171133 0.433476
vt 0.173183 0.431317
vt 0.169657 0.417971
vt 0.169187 0.435496
vt 0.160237 0.418341
vt 0.161128 0.417964
vt 0.169815 0.434634
vt 0.187500 0.439721
vt 0.205813 0.435496
vt 0.187500 0.443457
vt 0.187500 0.442388
vt 0.205185 0.434634
vt 0.214762 0.418341
vt 0.213871 0.417964
vt 0.203867 0.433476
vt 0.210808 0.418095
vt 0.215847 0.408629
vt 0.211580 0.408629
vt 0.205831 0.408629
vt 0.187500 0.408629
vt 0.169169 0.408629
vt 0.163420 0.408629
vt 0.159153 0.408629
vt 0.214974 0.408629
vt 0.160026 0.408629
vt 0.187500 0.376746
vt 0.187500 0.368213
vt 0.197651 0.368043
vt 0.195627 0.375009
vt 0.179373 0.375009
vt 0.177348 0.368043
vt 0.198047 0.361754
vt 0.187500 0.361754
vt 0.176953 0.361754
vt 0.205673 0.384210
vt 0.208284 0.384817
vt 0.201412 0.398265
vt 0.199653 0.395747
vt 0.187500 0.404556
vt 0.187500 0.401328
vt 0.205673 0.368585
vt 0.199653 0.380122
vt 0.206547 0.361754
vt 0.173588 0.398265
vt 0.175346 0.395747
vt 0.187500 0.385703
vt 0.175346 0.380122
vt 0.166716 0.384817
vt 0.169327 0.384210
vt 0.206547 0.377379
vt 0.209293 0.377379
vt 0.169327 0.368585
vt 0.168453 0.361754
vt 0.171505 0.432369
vt 0.163629 0.417057
vt 0.165707 0.377379
vt 0.168453 0.377379
vt 0.166716 0.416067
vt 0.173588 0.429515
vt 0.203495 0.432369
vt 0.187500 0.439474
vt 0.162520 0.408629
vt 0.165707 0.408629
vt 0.187500 0.435806
vt 0.201412 0.429515
vt 0.211371 0.417057
vt 0.212480 0.408629
vt 0.208284 0.416067
vt 0.209293 0.408629
vt 0.217760 0.398205
vt 0.220730 0.398205
vt 0.220730 0.404977
vt 0.217760 0.404977
vt 0.204869 0.398205
vt 0.204869 0.398205
vt 0.204869 0.404977
vt 0.204869 0.404977
vt 0.209982 0.398205
vt 0.209982 0.404977
vt 0.209982 0.398205
vt 0.204869 0.398205
vt 0.204868 0.404977
vt 0.209982 0.404977
vt 0.217760 0.398205
vt 0.217760 0.404977
vt 0.215081 0.443000
vt 0.208190 0.443000
vt 0.208190 0.443000
vt 0.215081 0.443000
vt 0.217760 0.436227
vt 0.220730 0.436227
vt 0.217710 0.443000
vt 0.209982 0.436227
vt 0.203265 0.443000
vt 0.204869 0.436227
vt 0.209982 0.436227
vt 0.204868 0.436227
vt 0.203264 0.443000
vt 0.217760 0.436227
vt 0.203264 0.443000
vt 0.204869 0.436227
vt 0.203265 0.443000
vt 0.204869 0.436227
vt 0.204869 0.398205
vt 0.204869 0.404977
vt 0.217760 0.398205
vt 0.217760 0.404977
vt 0.220730 0.404977
vt 0.220730 0.398205
vt 0.209982 0.404977
vt 0.209982 0.398205
vt 0.209982 0.398205
vt 0.209982 0.404977
vt 0.217760 0.398205
vt 0.217760 0.404977
vt 0.215081 0.443000
vt 0.217710 0.443000
vt 0.220730 0.436227
vt 0.217760 0.436227
vt 0.208190 0.443000
vt 0.209982 0.436227
vt 0.208190 0.443000
vt 0.209982 0.436227
vt 0.215081 0.443000
vt 0.217760 0.436227
vt 0.187500 0.418191
vt 0.205343 0.417971
vt 0.201816 0.431317
vt 0.187500 0.434341
vt 0.169657 0.417971
vt 0.173183 0.431317
vt 0.171133 0.433476
vt 0.164192 0.418095
vt 0.169815 0.434634
vt 0.161128 0.417964
vt 0.160237 0.418341
vt 0.169187 0.435496
vt 0.187500 0.439721
vt 0.205185 0.434634
vt 0.187500 0.442388
vt 0.187500 0.443457
vt 0.205813 0.435496
vt 0.214762 0.418341
vt 0.213871 0.417964
vt 0.203867 0.433476
vt 0.210808 0.418095
vt 0.211580 0.408629
vt 0.215847 0.408629
vt 0.187500 0.408629
vt 0.205831 0.408629
vt 0.169169 0.408629
vt 0.163420 0.408629
vt 0.159153 0.408629
vt 0.214974 0.408629
vt 0.160026 0.408629
vt 0.187500 0.376746
vt 0.195627 0.375009
vt 0.197651 0.368043
vt 0.187500 0.368213
vt 0.177348 0.368043
vt 0.179373 0.375009
vt 0.198047 0.361754
vt 0.187500 0.361754
vt 0.176953 0.361754
vt 0.208284 0.384817
vt 0.205673 0.384210
vt 0.199653 0.395747
vt 0.201412 0.398265
vt 0.187500 0.401328
vt 0.187500 0.404556
vt 0.199653 0.380122
vt 0.205673 0.368585
vt 0.206547 0.361754
vt 0.175346 0.395747
vt 0.173588 0.398265
vt 0.175346 0.380122
vt 0.187500 0.385703
vt 0.169327 0.384210
vt 0.166716 0.384817
vt 0.209293 0.377379
vt 0.206547 0.377379
vt 0.168453 0.361754
vt 0.169327 0.368585
vt 0.171505 0.432369
vt 0.163629 0.417057
vt 0.165707 0.377379
vt 0.168453 0.377379
vt 0.173588 0.429515
vt 0.166716 0.416067
vt 0.203495 0.432369
vt 0.187500 0.439474
vt 0.162520 0.408629
vt 0.165707 0.408629
vt 0.201412 0.429515
vt 0.187500 0.435806
vt 0.212480 0.408629
vt 0.211371 0.417057
vt 0.209293 0.408629
vt 0.208284 0.416067
vn -0.5026 0.0000 -0.8645
vn -0.4683 0.3738 -0.8006
vn -0.0000 0.3706 -0.9288
vn 0.0000 -0.0000 -1.0000
vn -0.9928 0.0000 0.1197
vn -0.9180 0.3810 0.1102
vn -0.9189 0.3868 -0.0779
vn -0.9964 0.0000 -0.0845
vn -0.8199 0.3810 -0.4272
vn -0.8858 0.0000 -0.4641
vn 0.8858 -0.0000 -0.4641
vn 0.8199 0.3810 -0.4272
vn 0.9189 0.3868 -0.0779
vn 0.9964 0.0000 -0.0845
vn 0.5026 -0.0000 -0.8645
vn 0.4683 0.3738 -0.8006
vn -0.2085 0.9064 -0.3674
vn 0.2085 0.9064 -0.3674
vn -0.0000 0.9065 -0.4223
vn -0.3641 0.9107 -0.1950
vn -0.3898 0.9203 -0.0330
vn 0.3641 0.9107 -0.1950
vn 0.3898 0.9203 -0.0330
vn 0.3919 0.9188 0.0476
vn 0.9180 0.3810 0.1102
vn -0.3919 0.9188 0.0476
vn 0.9928 0.0000 0.1197
vn -0.5026 0.0000 0.8645
vn 0.0000 -0.0000 1.0000
vn -0.0000 0.3550 0.9349
vn -0.4713 0.3585 0.8058
vn -0.8858 0.0000 0.4641
vn -0.8254 0.3657 0.4301
vn 0.8858 -0.0000 0.4641
vn 0.8254 0.3657 0.4301
vn 0.5026 -0.0000 0.8645
vn 0.4713 0.3585 0.8058
vn -0.2179 0.8975 0.3835
vn -0.0000 0.8977 0.4407
vn -0.3807 0.9020 0.2037
vn 0.3807 0.9020 0.2037
vn 0.2179 0.8975 0.3835
vn -0.5207 0.6075 0.5999
vn -0.6475 0.2609 0.7160
vn 0.0000 0.2746 0.9616
vn 0.0000 0.7134 0.7007
vn 0.9119 0.2683 0.3105
vn 0.6375 0.7194 0.2757
vn 0.5207 0.6075 0.5999
vn 0.6475 0.2609 0.7160
vn 0.6622 0.7491 0.0177
vn 0.9535 0.3001 0.0288
vn 0.9201 0.2932 -0.2596
vn 0.6392 0.7245 -0.2579
vn 0.0000 0.9599 0.2804
vn -0.6622 0.7491 0.0177
vn -0.0000 0.9999 0.0152
vn 0.0000 0.9656 -0.2601
vn -0.6392 0.7245 -0.2579
vn -0.9535 0.3001 0.0288
vn -0.9201 0.2932 -0.2596
vn -0.6375 0.7194 0.2757
vn -0.9119 0.2683 0.3105
vn -0.9928 0.1132 0.0382
vn -0.9368 0.0970 0.3362
vn -0.6683 0.0926 0.7381
vn 0.0000 0.1006 0.9949
vn 0.6683 0.0926 0.7381
vn 0.9368 0.0970 0.3362
vn 0.9928 0.1132 0.0382
vn -0.9626 0.1044 -0.2499
vn 0.9626 0.1044 -0.2499
vn -0.0000 -0.8076 -0.5898
vn -0.0000 -0.3066 -0.9518
vn 0.7435 -0.3071 -0.5941
vn 0.5897 -0.6856 -0.4269
vn -0.5897 -0.6856 -0.4269
vn -0.7435 -0.3071 -0.5941
vn 0.4344 -0.1053 -0.8945
vn -0.4344 -0.1053 -0.8945
vn 0.8115 -0.2937 -0.5053
vn 0.6289 -0.2702 -0.7290
vn 0.4363 -0.5056 -0.7444
vn 0.5700 -0.6347 -0.5217
vn 0.0000 -0.6474 -0.7621
vn -0.0000 -0.8430 -0.5380
vn 0.9725 -0.1219 -0.1984
vn 0.8580 -0.1658 -0.4862
vn -0.4363 -0.5056 -0.7444
vn -0.5700 -0.6347 -0.5217
vn -0.6289 -0.2702 -0.7290
vn -0.8115 -0.2937 -0.5053
vn 0.6475 -0.1944 -0.7369
vn -0.8580 -0.1658 -0.4862
vn -0.9725 -0.1219 -0.1984
vn 0.6003 0.6702 -0.4365
vn 0.8600 0.2727 -0.4313
vn -0.6475 -0.1944 -0.7369
vn 0.2103 -0.0006 -0.9776
vn 0.2101 0.0055 -0.9777
vn 0.1501 0.1557 -0.9763
vn 0.1454 0.1604 -0.9763
vn -0.6003 0.6702 -0.4365
vn 0.0000 0.8971 -0.4418
vn 0.8988 0.0838 -0.4302
vn 0.2125 -0.0954 -0.9725
vn -0.0000 0.2146 -0.9767
vn -0.1501 0.1557 -0.9763
vn -0.1454 0.1604 -0.9763
vn -0.8600 0.2727 -0.4313
vn -0.8988 0.0838 -0.4302
vn -0.2103 -0.0006 -0.9776
vn -0.2101 0.0055 -0.9777
vn -0.2125 -0.0954 -0.9725
vn 0.2103 -0.0007 -0.9776
vn 0.0000 -1.0000 0.0000
usemtl tiny_treats_1
s 1
f 2/1/1 10/2/2 9/3/3 1/4/4
f 25/5/5 35/6/6 14/7/7 4/8/8
f 4/8/8 14/7/7 12/9/9 3/10/10
f 6/11/11 16/12/12 19/13/13 5/14/14
f 7/15/15 20/16/16 16/12/12 6/11/11
f 11/17/17 21/18/18 8/19/19
f 3/10/10 12/9/9 10/2/2 2/1/1
f 7/15/15 1/4/4 9/3/3 20/16/16
f 11/20/17 8/21/19 9/22/3 10/23/2
f 13/24/20 11/20/17 10/23/2 12/25/9
f 15/26/21 13/24/20 12/25/9 14/27/7
f 17/28/22 18/29/23 19/30/13 16/31/12
f 21/32/18 17/28/22 16/31/12 20/33/16
f 8/21/19 21/32/18 20/33/16 9/22/3
f 39/34/24 40/35/25 19/30/13 18/29/23
f 14/27/7 35/36/6 36/37/26 15/26/21
f 19/13/13 40/38/25 26/39/27 5/14/14
f 23/40/28 22/41/29 30/42/30 31/43/31
f 25/5/5 24/44/32 33/45/33 35/6/6
f 27/46/34 26/39/27 40/38/25 37/47/35
f 28/48/36 27/46/34 37/47/35 41/49/37
f 24/44/32 23/40/28 31/43/31 33/45/33
f 28/48/36 41/49/37 30/42/30 22/41/29
f 32/50/38 31/51/31 30/52/30 29/53/39
f 34/54/40 33/55/33 31/51/31 32/50/38
f 36/37/26 35/36/6 33/55/33 34/54/40
f 38/56/41 37/57/35 40/35/25 39/34/24
f 42/58/42 41/59/37 37/57/35 38/56/41
f 29/53/39 30/52/30 41/59/37 42/58/42
f 39/60/24 18/61/23 15/62/21 36/63/26
f 18/61/23 17/64/22 13/65/20 15/62/21
f 38/66/41 39/60/24 36/63/26 34/67/40
f 38/66/41 34/67/40 32/68/38 42/69/42
f 42/69/42 32/68/38 29/70/39
f 44/71/43 47/72/44 48/73/45 46/74/46
f 68/75/47 65/76/48 43/77/49 45/78/50
f 76/79/51 79/80/52 52/81/53 50/82/54
f 67/83/55 46/74/46 43/77/49 65/76/48
f 78/84/56 75/85/57 51/86/58 49/87/59
f 77/88/60 78/84/56 49/87/59 53/89/61
f 66/90/62 44/71/43 46/74/46 67/83/55
f 44/71/43 66/90/62 69/91/63 47/72/44
f 69/91/63 77/88/60 97/92/64 95/93/65
f 46/74/46 48/73/45 45/78/50 43/77/49
f 48/73/45 47/72/44 71/94/66 70/95/67
f 45/78/50 48/73/45 70/95/67 72/96/68
f 47/72/44 69/91/63 95/93/65 71/94/66
f 96/97/69 98/98/70 79/80/52 68/75/47
f 68/75/47 45/78/50 72/96/68 96/97/69
f 75/85/57 76/79/51 50/82/54 51/86/58
f 75/85/57 67/83/55 65/76/48 76/79/51
f 97/92/64 77/88/60 53/89/61 73/99/71
f 67/83/55 75/85/57 78/84/56 66/90/62
f 79/80/52 98/98/70 74/100/72 52/81/53
f 77/88/60 69/91/63 66/90/62 78/84/56
f 76/79/51 65/76/48 68/75/47 79/80/52
f 56/101/73 59/102/74 58/103/75 57/104/76
f 55/105/77 54/106/78 59/102/74 56/101/73
f 81/107/79 58/103/75 59/102/74 80/108/79
f 80/108/80 59/102/74 54/106/78 82/109/80
f 83/110/81 60/111/82 61/112/83 89/113/84
f 89/113/84 61/112/83 62/114/85 85/115/86
f 83/116/81 89/117/84 57/104/76 58/103/75
f 81/107/87 99/118/88 83/116/81 58/103/75
f 85/115/86 62/114/85 63/119/89 91/120/90
f 85/121/86 91/122/90 55/105/77 56/101/73
f 91/120/90 63/119/89 64/123/91 87/124/92
f 60/111/82 83/110/81 99/125/88 94/126/93
f 54/106/78 87/127/92 100/128/94 82/109/95
f 89/117/84 85/121/86 56/101/73 57/104/76
f 86/129/96 50/82/54 52/81/53 92/130/97
f 93/131/98 100/132/94 87/124/92 64/123/91
f 91/122/90 87/127/92 54/106/78 55/105/77
f 92/130/99 64/133/100 63/134/101 86/129/102
f 84/135/103 49/87/59 51/86/58 90/136/104
f 74/100/72 101/137/105 92/130/97 52/81/53
f 101/137/106 93/138/106 64/133/100 92/130/99
f 90/136/107 62/139/107 61/140/108 84/135/109
f 90/136/104 51/86/58 50/82/54 86/129/96
f 53/89/61 88/141/110 102/142/111 73/99/71
f 88/141/112 60/143/113 94/144/114 102/142/114
f 86/129/102 63/134/101 62/139/107 90/136/107
f 88/141/110 53/89/61 49/87/59 84/135/103
f 84/135/109 61/140/108 60/143/113 88/141/112
f 104/145/15 103/146/4 111/147/3 112/148/16
f 127/149/27 106/150/14 116/151/13 137/152/25
f 106/150/14 105/153/11 114/154/12 116/151/13
f 108/155/10 107/156/8 121/157/7 118/158/9
f 109/159/1 108/155/10 118/158/9 122/160/2
f 123/161/17 119/162/20 115/163/22 113/164/18
f 105/153/11 104/145/15 112/148/16 114/154/12
f 109/159/1 122/160/2 111/147/3 103/146/4
f 113/164/18 112/165/16 111/166/3 110/167/19
f 115/163/22 114/168/12 112/165/16 113/164/18
f 117/169/23 116/170/13 114/168/12 115/163/22
f 119/162/20 118/171/9 121/172/7 120/173/21
f 123/161/17 122/174/2 118/171/9 119/162/20
f 110/167/19 111/166/3 122/174/2 123/161/17
f 141/175/26 120/173/21 121/172/7 142/176/6
f 116/170/13 117/169/23 138/177/24 137/178/25
f 121/157/7 107/156/8 128/179/5 142/180/6
f 125/181/36 133/182/37 132/183/30 124/184/29
f 127/149/27 137/152/25 135/185/35 126/186/34
f 129/187/32 139/188/33 142/180/6 128/179/5
f 130/189/28 143/190/31 139/188/33 129/187/32
f 126/186/34 135/185/35 133/182/37 125/181/36
f 130/189/28 124/184/29 132/183/30 143/190/31
f 134/191/42 131/192/39 132/193/30 133/194/37
f 136/195/41 134/191/42 133/194/37 135/196/35
f 138/177/24 136/195/41 135/196/35 137/178/25
f 140/197/40 141/175/26 142/176/6 139/198/33
f 144/199/38 140/197/40 139/198/33 143/200/31
f 131/192/39 144/199/38 143/200/31 132/193/30
f 141/175/26 138/177/24 117/169/23 120/173/21
f 120/173/21 117/169/23 115/163/22 119/162/20
f 110/167/19 123/161/17 113/164/18
f 140/197/40 136/195/41 138/177/24 141/175/26
f 136/195/41 140/197/40 144/199/38 134/191/42
f 134/191/42 144/199/38 131/192/39
f 150/201/45 149/202/50 146/203/49 148/204/46
f 147/205/44 145/206/43 167/207/62 170/208/63
f 152/209/59 154/210/61 181/211/60 178/212/56
f 169/213/55 167/207/62 145/206/43 148/204/46
f 151/214/54 153/215/58 177/216/57 180/217/51
f 151/214/54 180/217/51 179/218/52 155/219/53
f 168/220/48 169/213/55 148/204/46 146/203/49
f 171/221/47 168/220/48 146/203/49 149/202/50
f 171/221/47 197/222/69 199/223/70 179/218/52
f 147/205/44 150/201/45 148/204/46 145/206/43
f 172/224/67 173/225/68 149/202/50 150/201/45
f 174/226/66 172/224/67 150/201/45 147/205/44
f 149/202/50 173/225/68 197/222/69 171/221/47
f 198/227/65 170/208/63 181/211/60 200/228/64
f 170/208/63 198/227/65 174/226/66 147/205/44
f 153/215/58 152/209/59 178/212/56 177/216/57
f 167/207/62 169/213/55 177/216/57 178/212/56
f 199/223/70 175/229/72 155/219/53 179/218/52
f 169/213/55 168/220/48 180/217/51 177/216/57
f 181/211/60 154/210/61 176/230/71 200/228/64
f 171/221/47 179/218/52 180/217/51 168/220/48
f 170/208/63 167/207/62 178/212/56 181/211/60
f 158/231/73 159/232/77 160/233/78 161/234/74
f 156/235/75 157/236/76 158/231/73 161/234/74
f 161/234/74 160/233/78 183/237/80 182/238/80
f 156/235/75 161/234/74 182/238/79 184/239/79
f 162/240/91 185/241/92 191/242/90 163/243/89
f 163/243/89 191/242/90 187/244/86 164/245/85
f 159/232/77 191/246/90 185/247/92 160/233/78
f 183/237/95 160/233/78 185/247/92 201/248/94
f 164/245/85 187/244/86 193/249/84 165/250/83
f 157/236/76 193/251/84 187/252/86 158/231/73
f 165/250/83 193/249/84 189/253/81 166/254/82
f 162/240/91 196/255/98 201/256/94 185/241/92
f 156/235/75 184/239/87 202/257/88 189/258/81
f 158/231/73 187/252/86 191/246/90 159/232/77
f 152/209/59 188/259/103 194/260/110 154/210/61
f 195/261/93 166/254/82 189/253/81 202/262/88
f 156/235/75 189/258/81 193/251/84 157/236/76
f 194/260/112 188/259/109 165/263/108 166/264/113
f 151/214/54 186/265/96 192/266/104 153/215/58
f 176/230/71 154/210/61 194/260/110 203/267/111
f 203/267/114 194/260/112 166/264/113 195/268/114
f 192/266/107 186/265/102 163/269/101 164/270/107
f 153/215/58 192/266/104 188/259/103 152/209/59
f 155/219/53 175/229/72 204/271/105 190/272/97
f 190/272/115 204/271/106 196/273/106 162/274/100
f 188/259/109 192/266/107 164/270/107 165/263/108
f 151/214/54 155/219/53 190/272/97 186/265/96
f 186/265/102 190/272/115 162/274/100 163/269/101
f 13/65/20 17/64/22 21/18/18 11/17/17
f 1/4/116 7/15/116 2/1/116
f 3/10/116 2/1/116 7/15/116 6/11/116
f 4/8/116 3/10/116 6/11/116 5/14/116
f 4/8/116 5/14/116 26/39/116 25/5/116
f 25/5/116 26/39/116 27/46/116 24/44/116
f 24/44/116 27/46/116 28/48/116 23/40/116
f 22/41/116 23/40/116 28/48/116
f 103/146/116 104/145/116 109/159/116
f 105/153/116 108/155/116 109/159/116 104/145/116
f 106/150/116 107/156/116 108/155/116 105/153/116
f 106/150/116 127/149/116 128/179/116 107/156/116
f 127/149/116 126/186/116 129/187/116 128/179/116
f 126/186/116 125/181/116 130/189/116 129/187/116
f 124/184/116 130/189/116 125/181/116
