# Blender v3.4.1 OBJ File: 'Tiny_Treats_Bubbly_Bathroom_ASSETS_EXPORT.blend'
# www.blender.org
mtllib towel_stacked.mtl
o towel_stacked
v -0.250000 -0.000000 0.250000
v -0.250000 0.050000 0.300000
v -0.300000 0.050000 0.250000
v -0.250000 0.150000 0.300000
v -0.300000 0.150000 0.250000
v -0.250000 -0.000000 -0.250000
v -0.300000 0.050000 -0.250000
v -0.250000 0.050000 -0.300000
v -0.250000 0.200000 -0.250000
v -0.250000 0.150000 -0.300000
v -0.300000 0.150000 -0.250000
v 0.250000 -0.000000 0.250000
v 0.300000 0.050000 0.250000
v 0.250000 0.050000 0.300000
v 0.250000 0.150000 0.300000
v 0.300000 0.150000 0.250000
v 0.250000 -0.000000 -0.250000
v 0.250000 0.050000 -0.300000
v 0.300000 0.050000 -0.250000
v 0.300000 0.150000 -0.250000
v 0.250000 0.150000 -0.300000
v -0.255884 0.100000 0.314204
v -0.314204 0.100000 0.255884
v -0.255884 0.100000 -0.314204
v -0.314204 0.100000 -0.255884
v 0.314204 0.100000 -0.255884
v 0.255884 0.100000 -0.314204
v 0.255884 0.100000 0.314204
v 0.314204 0.100000 0.255884
v -0.250000 0.200000 0.250000
v 0.250000 0.200000 0.250000
v 0.250000 0.200000 -0.250000
v -0.342915 0.200000 0.086078
v -0.368599 0.250000 0.128977
v -0.385814 0.250000 0.060394
v -0.368599 0.350000 0.128977
v -0.385814 0.350000 0.060394
v -0.086078 0.200000 -0.342915
v -0.128977 0.250000 -0.368599
v -0.060394 0.250000 -0.385814
v -0.086078 0.400000 -0.342915
v -0.060394 0.350000 -0.385814
v -0.128977 0.350000 -0.368599
v 0.086078 0.200000 0.342915
v 0.128977 0.250000 0.368599
v 0.060394 0.250000 0.385814
v 0.060394 0.350000 0.385814
v 0.128977 0.350000 0.368599
v 0.342915 0.200000 -0.086078
v 0.368599 0.250000 -0.128977
v 0.385814 0.250000 -0.060394
v 0.385814 0.350000 -0.060394
v 0.368599 0.350000 -0.128977
v -0.380943 0.300000 0.138142
v -0.401023 0.300000 0.058146
v -0.058146 0.300000 -0.401023
v -0.138142 0.300000 -0.380943
v 0.401023 0.300000 -0.058146
v 0.380943 0.300000 -0.138142
v 0.058146 0.300000 0.401023
v 0.138142 0.300000 0.380943
v -0.342915 0.400000 0.086078
v 0.086078 0.400000 0.342915
v 0.342915 0.400000 -0.086078
v -0.097219 0.400000 0.339924
v -0.072949 0.450000 0.383638
v -0.140934 0.450000 0.364195
v -0.072949 0.550000 0.383638
v -0.140934 0.550000 0.364195
v -0.339924 0.400000 -0.097219
v -0.383638 0.450000 -0.072949
v -0.364195 0.450000 -0.140934
v -0.339924 0.600000 -0.097219
v -0.364195 0.550000 -0.140934
v -0.383638 0.550000 -0.072949
v 0.339924 0.400000 0.097219
v 0.383638 0.450000 0.072949
v 0.364195 0.450000 0.140934
v 0.364195 0.550000 0.140934
v 0.383638 0.550000 0.072949
v 0.097219 0.400000 -0.339924
v 0.072949 0.450000 -0.383638
v 0.140934 0.450000 -0.364195
v 0.140934 0.550000 -0.364195
v 0.072949 0.550000 -0.383638
v -0.071198 0.500000 0.398913
v -0.150496 0.500000 0.376233
v -0.376233 0.500000 -0.150496
v -0.398913 0.500000 -0.071198
v 0.150496 0.500000 -0.376233
v 0.071198 0.500000 -0.398913
v 0.376233 0.500000 0.150496
v 0.398913 0.500000 0.071198
v -0.097219 0.600000 0.339924
v 0.339924 0.600000 0.097219
v 0.097219 0.600000 -0.339924
vt 0.460293 0.376347
vt 0.459769 0.380796
vt 0.415231 0.380796
vt 0.414707 0.376347
vt 0.465488 0.376347
vt 0.464223 0.380796
vt 0.464223 0.380796
vt 0.465488 0.376347
vt 0.409512 0.376347
vt 0.410777 0.380796
vt 0.410777 0.380796
vt 0.409512 0.376347
vt 0.414707 0.376347
vt 0.415231 0.380796
vt 0.459769 0.380796
vt 0.460293 0.376347
vt 0.415231 0.355069
vt 0.415231 0.359519
vt 0.410777 0.359519
vt 0.415231 0.417931
vt 0.415231 0.422380
vt 0.410777 0.417931
vt 0.415231 0.355069
vt 0.410777 0.359519
vt 0.415231 0.359519
vt 0.415231 0.422380
vt 0.415231 0.417931
vt 0.410777 0.417931
vt 0.459769 0.355069
vt 0.464223 0.359519
vt 0.459769 0.359519
vt 0.459769 0.422380
vt 0.459769 0.417931
vt 0.464223 0.417931
vt 0.459769 0.355069
vt 0.459769 0.359519
vt 0.464223 0.359519
vt 0.459769 0.422380
vt 0.464223 0.417931
vt 0.459769 0.417931
vt 0.414707 0.388725
vt 0.415231 0.393174
vt 0.410777 0.393174
vt 0.409512 0.388725
vt 0.414707 0.388725
vt 0.415231 0.384275
vt 0.410777 0.384275
vt 0.409512 0.388725
vt 0.465488 0.388725
vt 0.464223 0.384275
vt 0.459769 0.384275
vt 0.460293 0.388725
vt 0.460293 0.388725
vt 0.459769 0.384275
vt 0.464223 0.384275
vt 0.465488 0.388725
vt 0.415231 0.342691
vt 0.459769 0.342691
vt 0.459769 0.342691
vt 0.415231 0.342691
vt 0.459769 0.393174
vt 0.464223 0.393174
vt 0.464223 0.393174
vt 0.459769 0.393174
vt 0.415231 0.393174
vt 0.410777 0.393174
vt 0.415231 0.384275
vt 0.410777 0.384275
vt 0.415231 0.371897
vt 0.459769 0.371897
vt 0.410777 0.371897
vt 0.410777 0.371897
vt 0.464223 0.371897
vt 0.464223 0.371897
vt 0.459769 0.371897
vt 0.415231 0.371897
vt 0.210293 0.376347
vt 0.209769 0.380796
vt 0.165231 0.380796
vt 0.164707 0.376347
vt 0.215488 0.376347
vt 0.214223 0.380796
vt 0.214223 0.380796
vt 0.215488 0.376347
vt 0.159512 0.376347
vt 0.160777 0.380796
vt 0.160777 0.380796
vt 0.159512 0.376347
vt 0.164707 0.376347
vt 0.165231 0.380796
vt 0.209769 0.380796
vt 0.210293 0.376347
vt 0.165231 0.355069
vt 0.165231 0.359519
vt 0.160777 0.359519
vt 0.165231 0.417931
vt 0.165231 0.422380
vt 0.160777 0.417931
vt 0.165231 0.355069
vt 0.160777 0.359519
vt 0.165231 0.359519
vt 0.165231 0.422380
vt 0.165231 0.417931
vt 0.160777 0.417931
vt 0.209769 0.355069
vt 0.214223 0.359519
vt 0.209769 0.359519
vt 0.209769 0.422380
vt 0.209769 0.417931
vt 0.214223 0.417931
vt 0.209769 0.355069
vt 0.209769 0.359519
vt 0.214223 0.359519
vt 0.209769 0.422380
vt 0.214223 0.417931
vt 0.209769 0.417931
vt 0.164707 0.388725
vt 0.165231 0.393174
vt 0.160777 0.393174
vt 0.159512 0.388725
vt 0.164707 0.388725
vt 0.165231 0.384275
vt 0.160777 0.384275
vt 0.159512 0.388725
vt 0.215488 0.388725
vt 0.214223 0.384275
vt 0.209769 0.384275
vt 0.210293 0.388725
vt 0.210293 0.388725
vt 0.209769 0.384275
vt 0.214223 0.384275
vt 0.215488 0.388725
vt 0.165231 0.342691
vt 0.209769 0.342691
vt 0.209769 0.342691
vt 0.165231 0.342691
vt 0.209769 0.393174
vt 0.214223 0.393174
vt 0.214223 0.393174
vt 0.209769 0.393174
vt 0.165231 0.393174
vt 0.160777 0.393174
vt 0.165231 0.384275
vt 0.160777 0.384275
vt 0.165231 0.371897
vt 0.209769 0.371897
vt 0.160777 0.371897
vt 0.160777 0.371897
vt 0.214223 0.371897
vt 0.214223 0.371897
vt 0.209769 0.371897
vt 0.165231 0.371897
vt 0.460293 0.626347
vt 0.459769 0.630796
vt 0.415231 0.630796
vt 0.414707 0.626347
vt 0.465488 0.626347
vt 0.464223 0.630796
vt 0.464223 0.630796
vt 0.465488 0.626347
vt 0.409512 0.626347
vt 0.410777 0.630796
vt 0.410777 0.630796
vt 0.409512 0.626347
vt 0.414707 0.626347
vt 0.415231 0.630796
vt 0.459769 0.630796
vt 0.460293 0.626347
vt 0.415231 0.605070
vt 0.415231 0.609519
vt 0.410777 0.609519
vt 0.415231 0.667931
vt 0.415231 0.672380
vt 0.410777 0.667931
vt 0.415231 0.605070
vt 0.410777 0.609519
vt 0.415231 0.609519
vt 0.415231 0.672380
vt 0.415231 0.667931
vt 0.410777 0.667931
vt 0.459769 0.605070
vt 0.464223 0.609519
vt 0.459769 0.609519
vt 0.459769 0.672380
vt 0.459769 0.667931
vt 0.464223 0.667931
vt 0.459769 0.605070
vt 0.459769 0.609519
vt 0.464223 0.609519
vt 0.459769 0.672380
vt 0.464223 0.667931
vt 0.459769 0.667931
vt 0.414707 0.638725
vt 0.415231 0.643174
vt 0.410777 0.643174
vt 0.409512 0.638725
vt 0.414707 0.638725
vt 0.415231 0.634275
vt 0.410777 0.634275
vt 0.409512 0.638725
vt 0.465488 0.638725
vt 0.464223 0.634275
vt 0.459769 0.634275
vt 0.460293 0.638725
vt 0.460293 0.638725
vt 0.459769 0.634275
vt 0.464223 0.634275
vt 0.465488 0.638725
vt 0.415231 0.592691
vt 0.459769 0.592691
vt 0.459769 0.592691
vt 0.415231 0.592691
vt 0.459769 0.643174
vt 0.464223 0.643174
vt 0.464223 0.643174
vt 0.459769 0.643174
vt 0.415231 0.643174
vt 0.410777 0.643174
vt 0.415231 0.634275
vt 0.410777 0.634275
vt 0.415231 0.621897
vt 0.459769 0.621897
vt 0.410777 0.621897
vt 0.410777 0.621897
vt 0.464223 0.621897
vt 0.464223 0.621897
vt 0.459769 0.621897
vt 0.415231 0.621897
vn 0.3827 0.0000 0.9239
vn 0.3190 0.4806 0.8169
vn -0.3190 0.4806 0.8169
vn -0.3827 0.0000 0.9239
vn 0.9239 -0.0000 -0.3827
vn 0.8169 0.4806 -0.3190
vn 0.8169 0.4806 0.3190
vn 0.9239 0.0000 0.3827
vn -0.9239 0.0000 0.3827
vn -0.8169 0.4806 0.3190
vn -0.8169 0.4806 -0.3190
vn -0.9239 0.0000 -0.3827
vn -0.3827 0.0000 -0.9239
vn -0.3190 0.4806 -0.8169
vn 0.3190 0.4806 -0.8169
vn 0.3827 -0.0000 -0.9239
vn -0.3416 -0.8756 0.3416
vn -0.3190 -0.4806 0.8169
vn -0.8169 -0.4806 0.3190
vn -0.3416 0.8756 0.3416
vn -0.3416 -0.8756 -0.3416
vn -0.8169 -0.4806 -0.3190
vn -0.3190 -0.4806 -0.8169
vn -0.3416 0.8756 -0.3416
vn 0.3416 -0.8756 0.3416
vn 0.8169 -0.4806 0.3190
vn 0.3190 -0.4806 0.8169
vn 0.3416 0.8756 0.3416
vn 0.3416 -0.8756 -0.3416
vn 0.3190 -0.4806 -0.8169
vn 0.8169 -0.4806 -0.3190
vn 0.3416 0.8756 -0.3416
vn -0.1462 -0.0000 0.9892
vn -0.1459 0.4806 0.8648
vn -0.6933 0.4806 0.5370
vn -0.8029 -0.0000 0.5961
vn 0.9892 -0.0000 0.1462
vn 0.8647 0.4806 0.1459
vn 0.5370 0.4806 0.6933
vn 0.5961 0.0000 0.8029
vn -0.9892 -0.0000 -0.1462
vn -0.8648 0.4806 -0.1459
vn -0.5370 0.4806 -0.6933
vn -0.5961 0.0000 -0.8029
vn 0.1462 -0.0000 -0.9892
vn 0.1459 0.4806 -0.8648
vn 0.6933 0.4806 -0.5370
vn 0.8029 -0.0000 -0.5961
vn -0.4685 -0.8756 0.1176
vn -0.6933 -0.4806 0.5370
vn -0.8648 -0.4806 -0.1459
vn -0.4685 0.8756 0.1176
vn -0.1176 -0.8756 -0.4685
vn -0.5370 -0.4806 -0.6933
vn 0.1459 -0.4806 -0.8648
vn -0.1176 0.8756 -0.4685
vn 0.1176 -0.8756 0.4685
vn 0.5370 -0.4806 0.6933
vn -0.1459 -0.4806 0.8648
vn 0.1176 0.8756 0.4685
vn 0.4685 -0.8756 -0.1176
vn 0.6933 -0.4806 -0.5370
vn 0.8648 -0.4806 0.1459
vn 0.4685 0.8756 -0.1176
vn 0.7830 0.0000 0.6220
vn 0.6755 0.4806 0.5593
vn 0.1176 0.4806 0.8690
vn 0.1139 0.0000 0.9935
vn 0.6220 0.0000 -0.7830
vn 0.5593 0.4806 -0.6755
vn 0.8690 0.4806 -0.1176
vn 0.9935 0.0000 -0.1139
vn -0.6220 0.0000 0.7830
vn -0.5593 0.4806 0.6755
vn -0.8690 0.4806 0.1176
vn -0.9935 0.0000 0.1139
vn -0.7830 0.0000 -0.6220
vn -0.6755 0.4806 -0.5593
vn -0.1176 0.4806 -0.8690
vn -0.1139 0.0000 -0.9935
vn -0.1328 -0.8756 0.4645
vn 0.1176 -0.4806 0.8690
vn -0.5593 -0.4806 0.6755
vn -0.1328 0.8756 0.4645
vn -0.4645 -0.8756 -0.1328
vn -0.8690 -0.4806 0.1176
vn -0.6755 -0.4806 -0.5593
vn -0.4645 0.8756 -0.1328
vn 0.4645 -0.8756 0.1328
vn 0.8690 -0.4806 -0.1176
vn 0.6755 -0.4806 0.5593
vn 0.4645 0.8756 0.1328
vn 0.1328 -0.8756 -0.4645
vn -0.1176 -0.4806 -0.8690
vn 0.5593 -0.4806 -0.6755
vn 0.1328 0.8756 -0.4645
usemtl tiny_treats_1
s 1
f 28/1/1 15/2/2 4/3/3 22/4/4
f 26/5/5 20/6/6 16/7/7 29/8/8
f 23/9/9 5/10/10 11/11/11 25/12/12
f 24/13/13 10/14/14 21/15/15 27/16/16
f 1/17/17 2/18/18 3/19/19
f 4/20/3 30/21/20 5/22/10
f 6/23/21 7/24/22 8/25/23
f 9/26/24 10/27/14 11/28/11
f 12/29/25 13/30/26 14/31/27
f 31/32/28 15/33/2 16/34/7
f 17/35/29 18/36/30 19/37/31
f 32/38/32 20/39/6 21/40/15
f 6/23/21 1/17/17 3/19/19 7/24/22
f 22/41/4 4/42/3 5/43/10 23/44/9
f 30/21/20 9/26/24 11/28/11 5/22/10
f 24/45/13 8/46/23 7/47/22 25/48/12
f 17/35/29 6/23/21 8/25/23 18/36/30
f 9/26/24 32/38/32 21/40/15 10/27/14
f 26/49/5 19/50/31 18/51/30 27/52/16
f 12/29/25 17/35/29 19/37/31 13/30/26
f 32/38/32 31/32/28 16/34/7 20/39/6
f 28/53/1 14/54/27 13/55/26 29/56/8
f 1/17/17 12/29/25 14/31/27 2/18/18
f 31/32/28 30/21/20 4/20/3 15/33/2
f 6/57/21 17/58/29 12/59/25 1/60/17
f 15/61/2 28/53/1 29/56/8 16/62/7
f 20/63/6 26/49/5 27/52/16 21/64/15
f 10/65/14 24/45/13 25/48/12 11/66/11
f 2/67/18 22/41/4 23/44/9 3/68/19
f 8/69/23 24/13/13 27/16/16 18/70/30
f 3/71/19 23/9/9 25/12/12 7/72/22
f 19/73/31 26/5/5 29/8/8 13/74/26
f 14/75/27 28/1/1 22/4/4 2/76/18
f 32/38/32 9/26/24 30/21/20 31/32/28
f 60/77/33 47/78/34 36/79/35 54/80/36
f 58/81/37 52/82/38 48/83/39 61/84/40
f 55/85/41 37/86/42 43/87/43 57/88/44
f 56/89/45 42/90/46 53/91/47 59/92/48
f 33/93/49 34/94/50 35/95/51
f 36/96/35 62/97/52 37/98/42
f 38/99/53 39/100/54 40/101/55
f 41/102/56 42/103/46 43/104/43
f 44/105/57 45/106/58 46/107/59
f 63/108/60 47/109/34 48/110/39
f 49/111/61 50/112/62 51/113/63
f 64/114/64 52/115/38 53/116/47
f 38/99/53 33/93/49 35/95/51 39/100/54
f 54/117/36 36/118/35 37/119/42 55/120/41
f 62/97/52 41/102/56 43/104/43 37/98/42
f 56/121/45 40/122/55 39/123/54 57/124/44
f 49/111/61 38/99/53 40/101/55 50/112/62
f 41/102/56 64/114/64 53/116/47 42/103/46
f 58/125/37 51/126/63 50/127/62 59/128/48
f 44/105/57 49/111/61 51/113/63 45/106/58
f 64/114/64 63/108/60 48/110/39 52/115/38
f 60/129/33 46/130/59 45/131/58 61/132/40
f 33/93/49 44/105/57 46/107/59 34/94/50
f 63/108/60 62/97/52 36/96/35 47/109/34
f 38/133/53 49/134/61 44/135/57 33/136/49
f 47/137/34 60/129/33 61/132/40 48/138/39
f 52/139/38 58/125/37 59/128/48 53/140/47
f 42/141/46 56/121/45 57/124/44 43/142/43
f 34/143/50 54/117/36 55/120/41 35/144/51
f 40/145/55 56/89/45 59/92/48 50/146/62
f 35/147/51 55/85/41 57/88/44 39/148/54
f 51/149/63 58/81/37 61/84/40 45/150/58
f 46/151/59 60/77/33 54/80/36 34/152/50
f 64/114/64 41/102/56 62/97/52 63/108/60
f 92/153/65 79/154/66 68/155/67 86/156/68
f 90/157/69 84/158/70 80/159/71 93/160/72
f 87/161/73 69/162/74 75/163/75 89/164/76
f 88/165/77 74/166/78 85/167/79 91/168/80
f 65/169/81 66/170/82 67/171/83
f 68/172/67 94/173/84 69/174/74
f 70/175/85 71/176/86 72/177/87
f 73/178/88 74/179/78 75/180/75
f 76/181/89 77/182/90 78/183/91
f 95/184/92 79/185/66 80/186/71
f 81/187/93 82/188/94 83/189/95
f 96/190/96 84/191/70 85/192/79
f 70/175/85 65/169/81 67/171/83 71/176/86
f 86/193/68 68/194/67 69/195/74 87/196/73
f 94/173/84 73/178/88 75/180/75 69/174/74
f 88/197/77 72/198/87 71/199/86 89/200/76
f 81/187/93 70/175/85 72/177/87 82/188/94
f 73/178/88 96/190/96 85/192/79 74/179/78
f 90/201/69 83/202/95 82/203/94 91/204/80
f 76/181/89 81/187/93 83/189/95 77/182/90
f 96/190/96 95/184/92 80/186/71 84/191/70
f 92/205/65 78/206/91 77/207/90 93/208/72
f 65/169/81 76/181/89 78/183/91 66/170/82
f 95/184/92 94/173/84 68/172/67 79/185/66
f 70/209/85 81/210/93 76/211/89 65/212/81
f 79/213/66 92/205/65 93/208/72 80/214/71
f 84/215/70 90/201/69 91/204/80 85/216/79
f 74/217/78 88/197/77 89/200/76 75/218/75
f 66/219/82 86/193/68 87/196/73 67/220/83
f 72/221/87 88/165/77 91/168/80 82/222/94
f 67/223/83 87/161/73 89/164/76 71/224/86
f 83/225/95 90/157/69 93/160/72 77/226/90
f 78/227/91 92/153/65 86/156/68 66/228/82
f 96/190/96 73/178/88 94/173/84 95/184/92
